<svg width="38" height="38" viewBox="0 0 38 38" fill="none" xmlns="http://www.w3.org/2000/svg">
<path d="M19.0067 2.03176e-07C11.4044 -0.0011079 4.53348 4.53048 1.54121 11.5192L1.30439 11.5977L1.39621 11.8732C-2.54357 21.5901 2.13967 32.6611 11.8566 36.6009C14.1261 37.5211 16.5521 37.9934 19.0011 37.9921C29.4923 37.9937 37.9984 29.4901 38 18.9989C38.0016 8.5077 29.498 0.00150406 19.0067 2.03176e-07ZM33.907 28.5735L32.9315 27.5987V25.3281C32.9327 25.2301 32.911 25.1332 32.8682 25.045L30.3987 20.113V17.7296C30.3987 17.518 30.2931 17.3203 30.117 17.2028L28.2174 15.9364C28.0685 15.837 27.8845 15.8053 27.7108 15.849L25.3844 16.4303L21.4769 14.7536L20.9393 10.9873L22.4293 9.49802H25.6276L26.704 11.1158C26.8012 11.2613 26.9544 11.3602 27.127 11.3888L30.9262 12.022C31.028 12.0391 31.1323 12.0307 31.2301 11.9979L34.7292 10.8315C37.664 16.4635 37.3501 23.2372 33.907 28.5735ZM31.2953 6.23957L30.2658 6.92596L27.3955 6.35164L25.5332 5.73174C25.4192 5.69304 25.2966 5.68813 25.1799 5.71781L22.8256 6.30605L21.7935 5.96223L22.5584 4.43241H24.6999C24.7981 4.43249 24.895 4.40977 24.983 4.36592L27.1738 3.27049C28.6826 4.05803 30.0706 5.05786 31.2953 6.23957ZM12.0657 2.68034L13.5853 3.69346C13.6601 3.74317 13.7444 3.77641 13.8329 3.79098L16.9014 4.3026L16.6019 5.19858L15.0031 5.73237C14.8599 5.78002 14.7384 5.87722 14.6605 6.00655L12.842 9.03705L9.921 10.7898L5.61523 11.4046C5.30314 11.4487 5.07107 11.7157 5.07068 12.0308V13.9304C5.07068 14.0984 5.13748 14.2594 5.25621 14.3781L6.33708 15.459V16.5468L3.70296 14.7903L2.74746 11.9238C4.56538 7.77002 7.89737 4.4647 12.0657 2.68034ZM10.2629 23.4411L7.40086 22.8681L6.33708 20.7462V19.2582L8.69639 16.8989L9.56957 18.6459C9.67682 18.8605 9.8963 18.9961 10.1363 18.996H14.2103L15.9256 21.8549C16.0401 22.0455 16.246 22.162 16.4683 22.1621H18.2286L17.7854 24.3827L15.3881 26.78C15.2691 26.8986 15.2021 27.0596 15.2019 27.2277V28.8107L12.9224 30.5203C12.763 30.6399 12.6691 30.8276 12.6691 31.0269V33.314L11.8814 33.0531L10.7695 30.2721V24.0617C10.7696 23.7607 10.5578 23.5013 10.2629 23.4411ZM8.35952 33.1751C2.38931 28.6961 -0.135506 20.9571 2.04461 13.819L2.5708 15.3969C2.61512 15.5305 2.70266 15.6455 2.81964 15.7237L5.97615 17.8278L5.2562 18.5484C5.13748 18.6671 5.07068 18.8281 5.07068 18.996V20.8956C5.0706 20.9939 5.09331 21.0908 5.13716 21.1787L6.40356 23.7115C6.49126 23.8864 6.65487 24.011 6.84681 24.049L9.50625 24.5802V30.3937C9.50617 30.4741 9.52145 30.5539 9.55121 30.6286L10.8176 33.7946C10.8869 33.9675 11.0289 34.1012 11.2058 34.16L13.1054 34.7932C13.1688 34.8147 13.2353 34.8258 13.3023 34.8261C13.652 34.8261 13.9355 34.5426 13.9355 34.1929V31.3435L16.215 29.6338C16.3744 29.5142 16.4683 29.3266 16.4683 29.1273V27.4898L18.8156 25.1425C18.9038 25.0541 18.964 24.9415 18.9884 24.819L19.6216 21.653C19.6902 21.31 19.4678 20.9765 19.1248 20.9079C19.0841 20.8998 19.0427 20.8956 19.0011 20.8956H16.8267L15.1114 18.0367C14.9969 17.8462 14.791 17.7297 14.5687 17.7296H10.5276L9.43977 15.547C9.34867 15.3648 9.17549 15.2375 8.97437 15.2051C8.77332 15.1703 8.56809 15.2366 8.42538 15.3824L7.60348 16.2011V15.1968C7.60348 15.0289 7.53668 14.8679 7.41796 14.7492L6.33708 13.6683V12.5798L10.2262 12.0245C10.3097 12.0124 10.39 11.9837 10.4624 11.9403L13.6284 10.0407C13.7172 9.98733 13.7916 9.91293 13.8449 9.82412L15.6242 6.85884L17.3016 6.29909C17.491 6.23696 17.6396 6.08839 17.7018 5.89891L18.335 3.9993C18.4447 3.66727 18.2645 3.30911 17.9324 3.19941C17.9018 3.18928 17.8704 3.18152 17.8386 3.17614L14.1736 2.5651L13.5296 2.13579C17.5143 0.838834 21.83 0.99935 25.7073 2.58853L24.5505 3.16601H22.1671C21.9259 3.16466 21.705 3.30048 21.5972 3.51617L20.3308 6.04897C20.1748 6.36193 20.302 6.74217 20.615 6.89818C20.6417 6.91147 20.6692 6.92287 20.6975 6.93229L22.5971 7.56549C22.711 7.6042 22.8337 7.6091 22.9504 7.57942L25.3046 6.99118L27.0295 7.56549C27.0542 7.57436 27.0796 7.58116 27.1054 7.58575L30.2715 8.21896C30.4361 8.25252 30.6074 8.2188 30.747 8.12524L32.1882 7.16404C32.8974 7.95404 33.5348 8.8057 34.0928 9.70888L30.9775 10.7473L27.6044 10.185L26.49 8.51339C26.3732 8.33823 26.1769 8.23265 25.9663 8.23162H22.1671C21.9992 8.23162 21.8382 8.29842 21.7194 8.41715L19.8198 10.3168C19.6788 10.4577 19.6124 10.6569 19.6406 10.8543L20.2738 15.2868C20.3057 15.5059 20.4498 15.6925 20.6538 15.7787L25.0862 17.6784C25.2131 17.7334 25.3548 17.7447 25.4889 17.7106L27.75 17.1452L29.1323 18.0684V20.2624C29.1312 20.3604 29.1529 20.4573 29.1956 20.5455L31.6651 25.4775V27.8609C31.6651 28.0288 31.7319 28.1898 31.8507 28.3085L33.1753 29.6338C27.3006 37.4644 16.1901 39.0499 8.35952 33.1751Z" fill="#7A7A7A"/>
</svg>
