<svg width="30" height="40" viewBox="0 0 30 40" fill="none" xmlns="http://www.w3.org/2000/svg">
<path d="M18.3538 32.6586V28.9878H22.0246V21.6463H18.3538V17.9756H11.0123V21.6463H7.34155V28.9878H11.0123V32.6586H18.3538ZM9.1355 27.2993V23.5576H12.7634V19.873H16.6179V23.5576H20.1326V27.2993H16.6179V30.9839H12.7634V27.2993H9.1355Z" fill="#737D6D"/>
<path d="M29.366 25.317V24.8289C29.366 21.6839 28.3832 18.6829 26.5233 16.1461L14.683 0L2.84267 16.1461C0.982797 18.6829 0 21.6839 0 24.8289V25.317C0 33.4137 6.58632 40 14.683 40C22.7797 40 29.366 33.4137 29.366 25.317ZM1.93458 25.317V24.8289C1.93458 22.2079 2.7084 19.7081 4.2588 17.5937L14.683 3.5479L25.0059 17.5937C26.5563 19.7069 27.3867 22.2079 27.3867 24.8289V25.317C27.3867 32.064 21.43 38.1744 14.683 38.1744C7.93596 38.1744 1.93458 32.064 1.93458 25.317Z" fill="#737D6D"/>
</svg>
