<svg width="101" height="18" viewBox="0 0 101 18" fill="none" xmlns="http://www.w3.org/2000/svg">
<path d="M38.4285 6.61365L31.8632 6.05032L29.2987 0L26.7341 6.05032L20.1688 6.61365L25.1492 10.9293L23.6564 17.3467L29.2987 13.9431L34.9409 17.3458L33.4482 10.9284L38.4285 6.61365Z" fill="#FFB04E"/>
<path d="M58.5968 6.61365L52.0316 6.05032L49.467 0L46.9024 6.05032L40.3372 6.61365L45.3175 10.9293L43.8248 17.3467L49.467 13.9431L55.1092 17.3458L53.6165 10.9284L58.5968 6.61365Z" fill="#FFB04E"/>
<path d="M101 6.61365L94.4348 6.05032L91.8702 0L89.3056 6.05032L82.7404 6.61365L87.7207 10.9293L86.228 17.3467L91.8702 13.9431L97.5124 17.3458L96.0197 10.9284L101 6.61365Z" fill="#CFCFCF"/>
<path d="M18.2597 6.61365L11.6944 6.05032L9.12983 0L6.56528 6.05032L0 6.61365L4.98034 10.9293L3.48759 17.3467L9.12983 13.9431L14.7721 17.3458L13.2793 10.9284L18.2597 6.61365Z" fill="#FFB04E"/>
<path d="M79.8862 6.61365L73.3209 6.05032L70.7563 0L68.1918 6.05032L61.6265 6.61365L66.6068 10.9293L65.1141 17.3467L70.7563 13.9431L76.3986 17.3458L74.9059 10.9284L79.8862 6.61365ZM70.7563 12.2303V3.73865L72.3175 7.42345L76.3164 7.76672L73.2834 10.3943L74.1928 14.3028L70.7563 12.2303Z" fill="#FFB04E"/>
</svg>
