<svg width="37" height="26" viewBox="0 0 37 26" fill="none" xmlns="http://www.w3.org/2000/svg">
<path d="M36.8969 14.0812C36.7054 13.1753 35.7259 12.4462 33.951 11.9086C32.4633 11.4594 30.5927 11.1943 28.5306 11.1501L28.3318 2.7691C28.0593 1.94425 27.0798 1.27409 25.4227 0.773294C23.7657 0.272482 21.6079 0 19.3322 0C17.0639 0 14.9208 0.272482 13.3005 0.773294C11.9675 1.18571 10.3694 1.95164 10.3694 3.26989C10.3694 3.35091 10.3768 3.43193 10.3915 3.51293L10.4725 6.87122C9.92754 6.76811 9.37519 6.71655 8.81548 6.71655C3.95481 6.71655 0 10.6714 0 15.532C0 20.4001 3.94008 24.3475 8.80811 24.3475C10.8334 24.3475 12.7998 23.6479 14.3684 22.3738C15.753 22.6978 17.3806 22.8746 19.1039 22.8893C19.4795 24.9293 23.9056 25.8646 28.0298 25.8646C30.2981 25.8646 32.4339 25.5848 34.0688 25.084C35.4166 24.6716 37 23.8983 37 22.58L36.8969 14.0812ZM13.713 2.18729C15.2006 1.7307 17.1964 1.47293 19.3175 1.47293C21.4164 1.47293 23.4858 1.7307 24.9882 2.18729C26.5937 2.67338 26.9399 3.17416 26.9399 3.27728C26.9399 3.38038 26.5937 3.88116 24.9882 4.36724C23.4932 4.81647 21.4237 5.0816 19.3248 5.0816C17.2922 5.0816 15.3626 4.84595 13.8971 4.41879C12.3137 3.96216 11.8644 3.45401 11.8276 3.29199C11.8276 3.28463 11.8203 3.27728 11.8129 3.26989C11.8129 3.11524 12.3063 2.62181 13.713 2.18729ZM27.0577 5.09633V6.9375C26.9767 7.0627 26.9399 7.20262 26.9399 7.34991C26.9399 7.44566 26.5937 7.95381 24.9956 8.43989C23.5006 8.89649 21.4311 9.15426 19.3322 9.15426C17.5131 9.15426 15.7309 8.96277 14.3169 8.6019C14.2948 8.59454 14.2727 8.59454 14.2579 8.58717C13.5657 8.03483 12.785 7.59295 11.9602 7.28363L11.9086 5.2068C12.4168 5.46458 12.947 5.67079 13.4994 5.81807C15.0975 6.28203 17.167 6.53243 19.3396 6.53243C21.6152 6.53243 23.7731 6.25995 25.4227 5.75915C25.9825 5.61186 26.5348 5.38356 27.0577 5.09633ZM13.7498 20.9598C10.7524 23.6921 6.10529 23.4711 3.38037 20.4737C0.655453 17.4763 0.869027 12.8292 3.86644 10.1043C5.22153 8.87439 6.98168 8.18948 8.80811 8.18948C9.54458 8.18948 10.2737 8.29996 10.9807 8.51352C11.9381 8.8081 12.8292 9.30155 13.5878 9.96437C14.825 11.0175 15.672 12.461 16.0034 14.0517C16.0991 14.5378 16.1507 15.0386 16.1507 15.532C16.158 17.6015 15.2816 19.5752 13.7498 20.9598ZM15.6204 21.1218C16.2169 20.3927 16.6956 19.5752 17.0344 18.6988C17.6678 18.7504 18.3306 18.7872 19.0155 18.7946C19.0008 18.8829 19.0008 18.9639 19.0155 19.0523L19.045 21.4238C17.9034 21.409 16.7619 21.3133 15.6204 21.1218ZM17.5868 14.6556C18.0213 14.6851 18.4705 14.6998 18.9345 14.7072C18.9419 14.7588 18.9566 14.8103 18.9713 14.8618L19.0008 17.3143C18.4705 17.3069 17.9476 17.2848 17.4542 17.248C17.5647 16.6809 17.6236 16.0991 17.6236 15.5247C17.6236 15.2374 17.6089 14.9502 17.5868 14.6556ZM19.3837 13.2416C19.3616 13.2416 19.3469 13.2416 19.3248 13.2416C18.6105 13.2416 17.9329 13.2122 17.2995 13.1606C17.0271 12.1811 16.5778 11.2532 15.9886 10.421C17.0933 10.5609 18.2128 10.6345 19.3248 10.6345C21.6005 10.6345 23.7583 10.3621 25.408 9.86125C25.9825 9.69925 26.5275 9.47094 27.0503 9.1837V11.1501C25.2092 11.2016 23.4785 11.4373 22.1013 11.8276C20.8051 12.1959 19.8993 12.6672 19.3837 13.2416ZM20.4001 14.339C20.5253 14.1107 21.0776 13.6614 22.5137 13.2637C23.9572 12.8587 25.8352 12.6377 27.8089 12.6377H27.8678C29.9741 12.6377 32.0362 12.8808 33.5312 13.3374C35.0778 13.8087 35.4534 14.28 35.4755 14.4052V14.4126C35.4681 14.5231 35.1072 15.0312 33.4723 15.5173C31.9626 15.9666 29.9667 16.2096 27.8678 16.2096C25.9162 16.2096 24.0382 15.9886 22.5947 15.5983C21.2102 15.2227 20.6136 14.7882 20.4369 14.5378C20.4369 14.4715 20.4222 14.4052 20.4001 14.339ZM35.527 22.5726C35.527 22.6757 35.203 23.1839 33.6343 23.67C32.1319 24.1339 30.1435 24.3917 28.0225 24.3917C25.8941 24.3917 23.913 24.1413 22.4327 23.6921C21.0261 23.2576 20.5547 22.7715 20.5547 22.6095C20.5547 22.6021 20.5547 22.6021 20.5547 22.5947L20.5474 22.1455L20.5253 20.4811C21.1144 20.7683 21.7257 20.9892 22.3591 21.1439C23.9056 21.5489 25.8573 21.7699 27.8678 21.7699C30.1435 21.7699 32.2792 21.4974 33.9289 20.9966C34.4665 20.8346 35.0852 20.6137 35.527 20.3264V22.5726ZM35.4313 18.4926C35.4313 18.5957 35.0925 19.0965 33.5091 19.5826C31.9994 20.0392 29.9962 20.2896 27.8604 20.2896C23.8541 20.2896 21.1292 19.3985 20.4958 18.6915L20.4663 16.3642C22.2044 17.2701 25.1282 17.6825 27.8678 17.6825C30.1067 17.6825 32.235 17.4174 33.8774 16.9313C34.4518 16.7693 35.0042 16.5483 35.5344 16.2611V18.1023C35.527 18.2128 35.4313 18.3453 35.4313 18.4926Z" fill="#737D6D"/>
<path d="M8.81539 10.6636C6.1273 10.6636 3.95473 12.8434 3.95473 15.5242C3.95473 18.2049 6.13466 20.3849 8.81539 20.3849C11.4961 20.3849 13.6761 18.2049 13.6761 15.5242C13.6687 12.8434 11.4961 10.6709 8.81539 10.6636ZM8.81539 18.9193C6.94477 18.9193 5.42766 17.4022 5.42766 15.5316C5.42766 13.661 6.94477 12.1438 8.81539 12.1438C10.686 12.1438 12.2031 13.661 12.2031 15.5316C12.2031 17.4022 10.686 18.9193 8.81539 18.9193Z" fill="#737D6D"/>
</svg>
