<svg width="14" height="16" viewBox="0 0 14 16" fill="none" xmlns="http://www.w3.org/2000/svg">
<path d="M6.57346 7.70723C7.6323 7.70723 8.54916 7.32747 9.2983 6.5782C10.0474 5.82906 10.4272 4.91244 10.4272 3.85349C10.4272 2.7949 10.0474 1.87816 9.29817 1.12878C8.5489 0.379757 7.63217 0 6.57346 0C5.5145 0 4.59789 0.379757 3.84874 1.1289C3.09961 1.87804 2.71973 2.79478 2.71973 3.85349C2.71973 4.91244 3.09961 5.82919 3.84886 6.57833C4.59814 7.32735 5.51488 7.70723 6.57346 7.70723Z" fill="#00840D"/>
<path d="M13.3165 12.3031C13.2948 11.9913 13.2511 11.6512 13.1868 11.2921C13.1219 10.9303 13.0383 10.5883 12.9382 10.2756C12.8348 9.95251 12.6941 9.63342 12.5203 9.32764C12.3399 9.01025 12.128 8.73389 11.8902 8.50647C11.6415 8.26855 11.3371 8.07727 10.985 7.93777C10.6342 7.79898 10.2454 7.72864 9.82953 7.72864C9.66621 7.72864 9.50825 7.79568 9.20319 7.99429C9.01545 8.1167 8.79585 8.2583 8.55073 8.41492C8.34114 8.54849 8.0572 8.67358 7.7065 8.78687C7.36434 8.89758 7.01693 8.95374 6.67404 8.95374C6.33114 8.95374 5.98386 8.89758 5.64133 8.78687C5.29099 8.67371 5.00705 8.54858 4.79771 8.41504C4.55491 8.25989 4.33518 8.11832 4.14463 7.99414C3.83995 7.79553 3.68187 7.72852 3.51854 7.72852C3.10252 7.72852 2.71386 7.79898 2.36315 7.93787C2.01134 8.07715 1.70678 8.26843 1.45788 8.50659C1.22021 8.73413 1.00818 9.01038 0.827998 9.32764C0.654293 9.63342 0.513669 9.95239 0.410154 10.2758C0.310179 10.5884 0.226561 10.9303 0.16162 11.2921C0.0972897 11.6507 0.0535887 11.9909 0.0319823 12.3034C0.0107422 12.6096 0 12.9273 0 13.2483C0 14.0835 0.265501 14.7596 0.789058 15.2583C1.30614 15.7503 1.99034 15.9999 2.82237 15.9999H10.5264C11.3584 15.9999 12.0424 15.7505 12.5596 15.2583C13.0833 14.76 13.3488 14.0837 13.3488 13.2481C13.3487 12.9258 13.3378 12.6078 13.3164 12.3031H13.3165Z" fill="#00840D"/>
</svg>
