<svg width="101" height="18" viewBox="0 0 101 18" fill="none" xmlns="http://www.w3.org/2000/svg">
<path d="M38.4449 6.60461L31.8886 6.04205L29.3275 0L26.7665 6.04205L20.2102 6.60461L25.1837 10.9144L23.693 17.323L29.3275 13.924L34.962 17.3221L33.4714 10.9135L38.4449 6.60461Z" fill="#DB4437"/>
<path d="M59.6174 6.60461L53.0611 6.04205L50.5 0L47.939 6.04205L41.3827 6.60461L46.3562 10.9144L44.8655 17.323L50.5 13.924L56.1345 17.3221L54.6439 10.9135L59.6174 6.60461Z" fill="#CFCFCF"/>
<path d="M79.8274 6.60461L73.2711 6.04205L70.71 0L68.149 6.04205L61.5927 6.60461L66.5662 10.9144L65.0755 17.323L70.71 13.924L76.3446 17.3221L74.8539 10.9135L79.8274 6.60461Z" fill="#CFCFCF"/>
<path d="M101 6.60461L94.4438 6.04205L91.8827 0L89.3216 6.04205L82.7653 6.60461L87.7389 10.9144L86.2482 17.323L91.8827 13.924L97.5172 17.3221L96.0265 10.9135L101 6.60461Z" fill="#CFCFCF"/>
<path d="M18.2347 6.60461L11.6784 6.04205L9.11735 0L6.5563 6.04205L0 6.60461L4.97353 10.9144L3.48283 17.323L9.11735 13.924L14.7519 17.3221L13.2612 10.9135L18.2347 6.60461Z" fill="#DB4437"/>
</svg>
