<svg width="38" height="26" viewBox="0 0 38 26" fill="none" xmlns="http://www.w3.org/2000/svg">
<path d="M19 0C10.3636 0 2.93636 5.35455 0 12.9546C2.93636 20.5545 10.3636 25.9091 19 25.9091C27.6364 25.9091 35.0636 20.5545 38 12.9546C35.0636 5.35455 27.6364 0 19 0ZM19 21.5909C14.1636 21.5909 10.3636 17.7909 10.3636 12.9546C10.3636 8.11819 14.1636 4.31818 19 4.31818C23.8364 4.31818 27.6364 8.11819 27.6364 12.9546C27.6364 17.7909 23.8364 21.5909 19 21.5909ZM19 7.77273C16.0636 7.77273 13.8182 10.0182 13.8182 12.9546C13.8182 15.8909 16.0636 18.1364 19 18.1364C21.9364 18.1364 24.1818 15.8909 24.1818 12.9546C24.1818 10.0182 21.9364 7.77273 19 7.77273Z" fill="#1C3947"/>
</svg>
