<svg width="22" height="22" viewBox="0 0 22 22" fill="none" xmlns="http://www.w3.org/2000/svg">
<path d="M20.7778 15.2778C19.3111 15.2778 17.8444 15.0333 16.3778 14.5444C16.0111 14.4222 15.5222 14.5444 15.1556 14.7889L12.4667 17.4778C9.04449 15.7667 6.23333 12.8333 4.4 9.41111L7.08889 6.72222C7.45555 6.35555 7.57778 5.86667 7.33333 5.5C6.96667 4.15555 6.72222 2.68889 6.72222 1.22222C6.72222 0.488888 6.23333 0 5.5 0H1.22222C0.488889 0 0 0.488888 0 1.22222C0 12.7111 9.28889 22 20.7778 22C21.5111 22 22 21.5111 22 20.7778V16.5C22 15.7667 21.5111 15.2778 20.7778 15.2778Z" fill="#DB4437"/>
</svg>
