<svg width="36" height="38" viewBox="0 0 36 38" fill="none" xmlns="http://www.w3.org/2000/svg">
<path d="M23.4004 37C23.4004 37 29.8867 37 32.1055 37C34.3242 37 34.833 35.7393 34.833 32.3159C34.833 29.5464 34.6807 21.7578 34.6162 18.5767C34.6094 18.2051 34.3672 17.542 33.7441 16.8628C31.0215 13.8926 19.0537 1 16.6016 1C14.2158 1 4.57031 13.1953 1.58301 17.0425C1.28027 17.4321 1 17.8003 1 18.9824C1 21.8906 1 33.0444 1 34.7207C1 36.6836 2.90527 37 3.83398 37C3.83398 37 9.48633 37 11.2773 37C13.0684 37 13.4014 35.6401 13.4014 34.5625C13.4014 33.7725 13.4014 26.9351 13.4014 23.0337C13.4014 22.0308 14.0654 21.1514 15.6064 21.1514H22.0488" stroke="#7A7A7A" stroke-width="2"/>
</svg>
