<svg width="47" height="34" viewBox="0 0 47 34" fill="none" xmlns="http://www.w3.org/2000/svg">
<path d="M17.1858 33.3912C10.1172 35.4181 2.53755 31.2166 0.510658 24.148C-1.51624 17.0794 2.68521 9.49974 9.75384 7.47284L34.4941 0.3787C39.6777 -1.10769 45.135 1.91735 46.6214 7.10102C48.1078 12.2847 45.0828 17.742 39.8991 19.2284L19.8713 24.9713C16.5726 25.9172 13.2376 24.0685 12.2917 20.7698C11.3458 17.4711 13.1945 14.1361 16.4932 13.1902L34.1648 8.12297L35.1782 11.6573L17.5066 16.7245C16.0929 17.1299 15.4207 18.3427 15.826 19.7564C16.2314 21.1701 17.4442 21.8423 18.8579 21.437L38.8857 15.6941C42.1844 14.7482 44.033 11.4132 43.0871 8.11447C42.1412 4.81577 38.8062 2.96713 35.5075 3.91302L10.7673 11.0072C5.58363 12.4936 2.55858 17.9509 4.04498 23.1345C5.53137 28.3182 10.9887 31.3433 16.1724 29.8569L38.5564 23.4383L39.5698 26.9727L17.1858 33.3912Z" fill="#BFC4D3"/>
</svg>
