<svg width="31" height="38" viewBox="0 0 31 38" fill="none" xmlns="http://www.w3.org/2000/svg">
<path d="M20.682 13.7676C20.1905 13.7676 19.7921 14.166 19.7921 14.6575V31.4771C19.7921 31.9683 20.1905 32.3671 20.682 32.3671C21.1736 32.3671 21.572 31.9683 21.572 31.4771V14.6575C21.572 14.166 21.1736 13.7676 20.682 13.7676Z" fill="#FF4343"/>
<path d="M10.1809 13.7676C9.68933 13.7676 9.29095 14.166 9.29095 14.6575V31.4771C9.29095 31.9683 9.68933 32.3671 10.1809 32.3671C10.6724 32.3671 11.0708 31.9683 11.0708 31.4771V14.6575C11.0708 14.166 10.6724 13.7676 10.1809 13.7676Z" fill="#FF4343"/>
<path d="M2.52754 11.313V33.2389C2.52754 34.5349 3.00275 35.7519 3.83289 36.6251C4.6592 37.5008 5.80915 37.9979 7.01264 38H23.8503C25.0541 37.9979 26.2041 37.5008 27.0301 36.6251C27.8602 35.7519 28.3354 34.5349 28.3354 33.2389V11.313C29.9856 10.875 31.0549 9.28074 30.8342 7.58745C30.6131 5.8945 29.1708 4.62809 27.4632 4.62774H22.9069V3.51534C22.9121 2.57987 22.5422 1.6816 21.88 1.02076C21.2177 0.360263 20.3181 -0.00752757 19.3826 0.000116929H11.4803C10.5449 -0.00753088 9.64521 0.36026 8.98298 1.02076C8.32075 1.6816 7.95087 2.57986 7.95609 3.51534V4.62774H3.39973C1.69219 4.62809 0.249883 5.8945 0.0287896 7.58745C-0.191954 9.28073 0.877349 10.875 2.52753 11.313H2.52754ZM23.8504 36.2201H7.01268C5.49111 36.2201 4.30745 34.9131 4.30745 33.2389V11.3912H26.5556V33.2389C26.5556 34.9131 25.3719 36.2201 23.8504 36.2201H23.8504ZM9.73595 3.51534C9.73004 3.05196 9.91219 2.60595 10.241 2.27884C10.5696 1.95172 11.0166 1.77199 11.4803 1.77999H19.3826C19.8464 1.77199 20.2934 1.95172 20.6219 2.27884C20.9508 2.60561 21.1329 3.05196 21.127 3.51534V4.62775H9.73595L9.73595 3.51534ZM3.39974 6.40761H27.4632C28.3479 6.40761 29.065 7.12476 29.065 8.00947C29.065 8.89419 28.3479 9.61134 27.4632 9.61134H3.39974C2.51503 9.61134 1.79787 8.89419 1.79787 8.00947C1.79787 7.12476 2.51503 6.40761 3.39974 6.40761Z" fill="#FF4343"/>
<path d="M15.4314 13.7676C14.9399 13.7676 14.5415 14.166 14.5415 14.6575V31.4771C14.5415 31.9683 14.9399 32.3671 15.4314 32.3671C15.923 32.3671 16.3214 31.9683 16.3214 31.4771V14.6575C16.3214 14.166 15.923 13.7676 15.4314 13.7676Z" fill="#FF4343"/>
</svg>
