<svg width="53" height="37" viewBox="0 0 53 37" fill="none" xmlns="http://www.w3.org/2000/svg">
<path d="M52.7817 20.1433C52.5078 18.8476 51.1066 17.8046 48.5676 17.0355C46.4395 16.3929 43.7635 16.0136 40.8136 15.9504L40.5292 3.96115C40.1394 2.78128 38.7382 1.82266 36.3678 1.10619C33.9973 0.389772 30.9105 0 27.6551 0C24.4102 0 21.3445 0.389772 19.0267 1.10619C17.1198 1.69622 14.8337 2.79184 14.8337 4.67769C14.8337 4.79351 14.8442 4.90945 14.8653 5.02533L14.9812 9.82947C14.2015 9.68196 13.4114 9.60808 12.6107 9.60808C5.65744 9.60808 0 15.2656 0 22.2188C0 29.1827 5.63637 34.8296 12.6002 34.8296C15.4974 34.8296 18.3103 33.8288 20.5543 32.0062C22.5349 32.4696 24.8632 32.7226 27.3285 32.7436C27.8658 35.6619 34.1975 36.9999 40.0972 36.9999C43.3421 36.9999 46.3973 36.5995 48.7362 35.8831C50.6641 35.2932 52.9292 34.1869 52.9292 32.3012L52.7817 20.1433ZM19.6167 3.12898C21.7448 2.47588 24.5999 2.10705 27.634 2.10705C30.6366 2.10705 33.597 2.47588 35.7462 3.12898C38.0429 3.82433 38.538 4.54068 38.538 4.68825C38.538 4.8357 38.0429 5.55211 35.7462 6.24746C33.6075 6.89012 30.6471 7.26939 27.6445 7.26939C24.7368 7.26939 21.9766 6.93225 19.8801 6.32115C17.615 5.66793 16.9723 4.94102 16.9196 4.70926C16.9196 4.69869 16.9091 4.68825 16.8986 4.67769C16.8986 4.45631 17.6044 3.75058 19.6167 3.12898ZM38.7066 7.29039V9.92422C38.5907 10.1034 38.538 10.3035 38.538 10.5142C38.538 10.6511 38.0429 11.3781 35.7567 12.0734C33.6181 12.7266 30.6576 13.0953 27.6551 13.0953C25.0529 13.0953 22.5033 12.8214 20.4806 12.3052C20.449 12.2947 20.4174 12.2947 20.3963 12.2842C19.406 11.494 18.2892 10.8618 17.1093 10.4194L17.0355 7.44847C17.7625 7.81723 18.521 8.11219 19.3112 8.32289C21.5973 8.98661 24.5577 9.34482 27.6656 9.34482C30.921 9.34482 34.0079 8.95505 36.3678 8.23857C37.1684 8.02787 37.9586 7.70129 38.7066 7.29039ZM19.6693 29.9834C15.3815 33.892 8.73374 33.5759 4.83569 29.2881C0.937638 25.0002 1.24316 18.3525 5.53102 14.4544C7.46951 12.695 9.98744 11.7152 12.6002 11.7152C13.6537 11.7152 14.6967 11.8732 15.7081 12.1788C17.0777 12.6002 18.3524 13.3061 19.4376 14.2543C21.2075 15.7607 22.4191 17.8257 22.8931 20.1013C23.0301 20.7967 23.1038 21.513 23.1038 22.2188C23.1144 25.1794 21.8607 28.0028 19.6693 29.9834ZM22.3453 30.2152C23.1987 29.1721 23.8835 28.0028 24.3681 26.7491C25.2741 26.8228 26.2223 26.8755 27.2021 26.8861C27.181 27.0125 27.181 27.1282 27.2021 27.2547L27.2442 30.6471C25.6112 30.626 23.9783 30.4891 22.3453 30.2152ZM25.1582 20.9651C25.7798 21.0073 26.4225 21.0284 27.0862 21.039C27.0967 21.1128 27.1178 21.1865 27.1389 21.2602L27.181 24.7684C26.4225 24.7578 25.6745 24.7263 24.9686 24.6736C25.1266 23.8624 25.2109 23.0301 25.2109 22.2084C25.2109 21.7975 25.1898 21.3866 25.1582 20.9651ZM27.7288 18.9425C27.6972 18.9425 27.6762 18.9425 27.6446 18.9425C26.6226 18.9425 25.6534 18.9003 24.7474 18.8265C24.3575 17.4253 23.7149 16.0979 22.8721 14.9073C24.4524 15.1076 26.0537 15.2129 27.6446 15.2129C30.8999 15.2129 33.9868 14.8231 36.3467 14.1068C37.1684 13.8749 37.9481 13.5482 38.6961 13.1375V15.9504C36.0622 16.0242 33.5864 16.3613 31.6164 16.9197C29.7621 17.4464 28.4663 18.1206 27.7288 18.9425ZM29.1827 20.5122C29.3618 20.1856 30.1519 19.5429 32.2063 18.974C34.2712 18.3946 36.9577 18.0785 39.7812 18.0785H39.8655C42.8786 18.0785 45.8284 18.4262 47.9671 19.0794C50.1795 19.7537 50.7168 20.4279 50.7484 20.607V20.6174C50.7379 20.7756 50.2216 21.5024 47.8828 22.1979C45.7231 22.8404 42.868 23.1881 39.8655 23.1881C37.0736 23.1881 34.3871 22.8721 32.3222 22.3137C30.3416 21.7764 29.4882 21.1549 29.2354 20.7967C29.2354 20.7019 29.2143 20.607 29.1827 20.5122ZM50.8221 32.2907C50.8221 32.4381 50.3586 33.1651 48.1146 33.8603C45.9654 34.5241 43.1209 34.8929 40.0867 34.8929C37.042 34.8929 34.208 34.5346 32.0904 33.892C30.0782 33.2704 29.4039 32.5751 29.4039 32.3433C29.4039 32.3328 29.4039 32.3328 29.4039 32.3222L29.3934 31.6796L29.3618 29.2986C30.2046 29.7094 31.079 30.0255 31.9851 30.2468C34.1975 30.8262 36.9893 31.1423 39.8655 31.1423C43.1209 31.1423 46.1761 30.7525 48.536 30.036C49.3051 29.8043 50.19 29.4882 50.8221 29.0774V32.2907ZM50.6852 26.4539C50.6852 26.6016 50.2006 27.318 47.9355 28.0133C45.7758 28.6665 42.9102 29.0247 39.8549 29.0247C34.1237 29.0247 30.2257 27.7498 29.3197 26.7384L29.2775 23.4095C31.7638 24.7052 35.9463 25.2951 39.8655 25.2951C43.0682 25.2951 46.1129 24.9159 48.4622 24.2206C49.284 23.9889 50.0741 23.6728 50.8327 23.2619V25.8956C50.8221 26.0537 50.6852 26.2434 50.6852 26.4539Z" fill="#1C3947"/>
<path d="M12.6108 15.2548C8.76535 15.2548 5.65755 18.373 5.65755 22.2077C5.65755 26.0427 8.77597 29.1611 12.6108 29.1611C16.4456 29.1611 19.5641 26.0427 19.5641 22.2077C19.5536 18.373 16.4456 15.2653 12.6108 15.2548ZM12.6108 27.0645C9.93479 27.0645 7.76454 24.8944 7.76454 22.2182C7.76454 19.5426 9.93479 17.3722 12.6108 17.3722C15.2868 17.3722 17.457 19.5426 17.457 22.2182C17.457 24.8944 15.2868 27.0645 12.6108 27.0645Z" fill="#1C3947"/>
</svg>
