<svg width="38" height="36" viewBox="0 0 38 36" fill="none" xmlns="http://www.w3.org/2000/svg">
<path d="M34.7064 14.4673H11.5976L20.5604 5.89328C21.8454 4.54347 21.8454 2.36217 20.5604 1.01236C19.2753 -0.337453 17.1912 -0.337453 15.8954 1.01236L0.971865 15.4824C0.323955 16.1087 0 16.9618 0 17.9012V17.9444C0 18.8839 0.323955 19.737 0.971865 20.3633L15.8846 34.8333C17.1804 36.1831 19.2645 36.1831 20.5496 34.8333C21.8346 33.4835 21.8346 31.3022 20.5496 29.9524L11.5868 21.3783H34.6956C36.5205 21.3783 37.9999 19.8342 37.9999 17.9228C38.0107 15.9791 36.5313 14.4673 34.7064 14.4673Z" fill="#1C3947"/>
</svg>
