<svg width="32" height="43" viewBox="0 0 32 43" fill="none" xmlns="http://www.w3.org/2000/svg">
<circle cx="15.5" cy="15.5" r="8.5" fill="white"/>
<path d="M15.573 0C6.98599 0 0 6.986 0 15.5729C0 26.2295 13.9363 41.8741 14.5296 42.5349C15.087 43.1556 16.06 43.1545 16.6163 42.5349C17.2097 41.8741 31.146 26.2295 31.146 15.5729C31.1458 6.986 24.1599 0 15.573 0ZM15.573 23.4081C11.2527 23.4081 7.73792 19.8932 7.73792 15.5729C7.73792 11.2526 11.2527 7.73783 15.573 7.73783C19.8932 7.73783 23.408 11.2527 23.408 15.573C23.408 19.8933 19.8932 23.4081 15.573 23.4081Z" fill="#FF3737"/>
<path d="M15.6791 11.3422V11.049H15.9395C16.0986 11.049 16.2276 10.92 16.2276 10.7608C16.2276 10.6017 16.0986 10.4727 15.9395 10.4727H14.8424C14.6832 10.4727 14.5542 10.6017 14.5542 10.7608C14.5542 10.92 14.6832 11.049 14.8424 11.049H15.1028V11.3422C13.3118 11.4822 11.8783 12.9156 11.7383 14.7066H19.0435C18.9035 12.9156 17.4701 11.4822 15.6791 11.3422V11.3422ZM14.1188 13.0009C13.7638 13.213 13.4823 13.5221 13.3049 13.8947C13.2555 13.9983 13.1522 14.059 13.0445 14.059C13.003 14.059 12.9608 14.05 12.9208 14.0309C12.7772 13.9625 12.7162 13.7905 12.7846 13.6469C13.0111 13.1713 13.3702 12.7769 13.8231 12.5062C13.9597 12.4245 14.1366 12.4691 14.2183 12.6057C14.3 12.7423 14.2554 12.9192 14.1188 13.0009ZM15.1796 12.7086C15.1037 12.7086 15.0273 12.7128 14.9525 12.721C14.9418 12.7221 14.9313 12.7227 14.9208 12.7227C14.7757 12.7227 14.6509 12.6134 14.6347 12.4658C14.6174 12.3076 14.7317 12.1653 14.8899 12.148C14.9854 12.1376 15.0829 12.1323 15.1796 12.1323C15.3387 12.1323 15.4678 12.2613 15.4678 12.4205C15.4678 12.5796 15.3387 12.7086 15.1796 12.7086V12.7086Z" fill="#FF3737"/>
<path d="M20.1165 15.2832H10.6648C10.5587 15.2832 10.4727 15.3692 10.4727 15.4753C10.4727 16.0482 10.9371 16.5127 11.51 16.5127H13.1821C12.943 16.5811 12.7323 16.7328 12.5925 16.9462L11.9063 17.9936H10.4727V20.3088H15.6902C16.1331 20.3088 16.5549 20.1202 16.8502 19.7903L18.9433 17.4853C19.1862 17.2137 19.125 16.7887 18.8153 16.5968C18.739 16.5495 18.655 16.5219 18.5697 16.5127H19.2712C19.8441 16.5127 20.3086 16.0482 20.3086 15.4753C20.3086 15.3692 20.2226 15.2832 20.1165 15.2832ZM18.1302 16.6461L15.9714 18.4585C15.8312 18.5762 15.654 18.6407 15.471 18.6407H14.6174C14.3179 18.6407 14.0752 18.3979 14.0752 18.0984C14.0752 17.799 14.318 17.5562 14.6174 17.5562H15.422C15.7214 17.5562 15.9642 17.3135 15.9642 17.014C15.9642 16.7878 15.8255 16.5939 15.6286 16.5127H18.4445C18.3314 16.5248 18.2216 16.5693 18.1302 16.6461H18.1302Z" fill="#FF3737"/>
</svg>
