<svg width="34" height="38" viewBox="0 0 34 38" fill="none" xmlns="http://www.w3.org/2000/svg">
<path d="M11.2321 21.375H8.19643C7.69554 21.375 7.28571 20.9742 7.28571 20.4844V17.5156C7.28571 17.0258 7.69554 16.625 8.19643 16.625H11.2321C11.733 16.625 12.1429 17.0258 12.1429 17.5156V20.4844C12.1429 20.9742 11.733 21.375 11.2321 21.375ZM19.4286 20.4844V17.5156C19.4286 17.0258 19.0188 16.625 18.5179 16.625H15.4821C14.9812 16.625 14.5714 17.0258 14.5714 17.5156V20.4844C14.5714 20.9742 14.9812 21.375 15.4821 21.375H18.5179C19.0188 21.375 19.4286 20.9742 19.4286 20.4844ZM26.7143 20.4844V17.5156C26.7143 17.0258 26.3045 16.625 25.8036 16.625H22.7679C22.267 16.625 21.8571 17.0258 21.8571 17.5156V20.4844C21.8571 20.9742 22.267 21.375 22.7679 21.375H25.8036C26.3045 21.375 26.7143 20.9742 26.7143 20.4844ZM19.4286 27.6094V24.6406C19.4286 24.1508 19.0188 23.75 18.5179 23.75H15.4821C14.9812 23.75 14.5714 24.1508 14.5714 24.6406V27.6094C14.5714 28.0992 14.9812 28.5 15.4821 28.5H18.5179C19.0188 28.5 19.4286 28.0992 19.4286 27.6094ZM12.1429 27.6094V24.6406C12.1429 24.1508 11.733 23.75 11.2321 23.75H8.19643C7.69554 23.75 7.28571 24.1508 7.28571 24.6406V27.6094C7.28571 28.0992 7.69554 28.5 8.19643 28.5H11.2321C11.733 28.5 12.1429 28.0992 12.1429 27.6094ZM26.7143 27.6094V24.6406C26.7143 24.1508 26.3045 23.75 25.8036 23.75H22.7679C22.267 23.75 21.8571 24.1508 21.8571 24.6406V27.6094C21.8571 28.0992 22.267 28.5 22.7679 28.5H25.8036C26.3045 28.5 26.7143 28.0992 26.7143 27.6094ZM34 8.3125V34.4375C34 36.4043 32.3683 38 30.3571 38H3.64286C1.6317 38 0 36.4043 0 34.4375V8.3125C0 6.3457 1.6317 4.75 3.64286 4.75H7.28571V0.890625C7.28571 0.400781 7.69554 0 8.19643 0H11.2321C11.733 0 12.1429 0.400781 12.1429 0.890625V4.75H21.8571V0.890625C21.8571 0.400781 22.267 0 22.7679 0H25.8036C26.3045 0 26.7143 0.400781 26.7143 0.890625V4.75H30.3571C32.3683 4.75 34 6.3457 34 8.3125ZM30.3571 33.9922V11.875H3.64286V33.9922C3.64286 34.2371 3.84777 34.4375 4.09821 34.4375H29.9018C30.1522 34.4375 30.3571 34.2371 30.3571 33.9922Z" fill="#7F7F7F"/>
</svg>
