<svg width="45" height="49" viewBox="0 0 45 49" fill="none" xmlns="http://www.w3.org/2000/svg">
<path d="M2.05655 33.1503L2.0567 33.1501C2.17138 33.0304 2.28971 32.9093 2.41085 32.7854C3.24703 31.9297 4.21739 30.9368 5.05136 29.2959C6.00229 27.4249 6.79614 24.6524 6.79614 20.2813C6.79614 13.212 11.707 7.53879 18.3683 5.84664V4.81259C18.3683 2.68099 20.1379 1.00005 22.2609 1.00005C24.3839 1.00005 26.1536 2.68099 26.1536 4.81259V5.84664C32.8149 7.53879 37.7257 13.212 37.7257 20.2813C37.7257 24.6524 38.5196 27.4249 39.4705 29.2959C40.3045 30.9368 41.2748 31.9297 42.111 32.7853C42.232 32.9092 42.3502 33.0301 42.4648 33.1497L2.05655 33.1503ZM2.05655 33.1503C1.33118 33.908 0.993869 34.8373 1.00014 35.7568L1.00014 35.7568M2.05655 33.1503L1.00014 35.7568M1.00014 35.7568C1.01365 37.7147 2.59196 39.5625 4.9036 39.5625M1.00014 35.7568L4.9036 39.5625M4.9036 39.5625H39.6182M4.9036 39.5625H39.6182M39.6182 39.5625C41.9294 39.5625 43.5094 37.7151 43.5217 35.7562M39.6182 39.5625L43.5217 35.7562M43.5217 35.7562C43.5278 34.8376 43.1909 33.9073 42.4652 33.1501L43.5217 35.7568C43.5217 35.7566 43.5217 35.7564 43.5217 35.7562ZM29.0471 41.3749V40.3749H28.047H16.4749H15.4748V41.3749C15.4748 45.0607 18.5409 47.9999 22.2609 47.9999C25.981 47.9999 29.0471 45.0607 29.0471 41.3749Z" stroke="#1C3947" stroke-width="2"/>
</svg>
