<svg width="23" height="22" viewBox="0 0 23 22" fill="none" xmlns="http://www.w3.org/2000/svg">
<path d="M2.39127 9.56535C1.07321 9.56535 0 10.6386 0 11.9566V19.6088C0 20.9268 1.07321 22 2.39127 22H5.26082C5.79935 22 6.29479 21.8183 6.69559 21.516V9.56535H2.39127Z" fill="black"/>
<path d="M22.9563 13.1521C22.9563 12.5772 22.7287 12.0415 22.3336 11.6465C22.7803 11.1577 23.0079 10.5025 22.9458 9.82052C22.8339 8.60478 21.7386 7.65209 20.4512 7.65209H14.5428C14.8355 6.76347 15.3042 5.13456 15.3042 3.82604C15.3042 1.75136 13.5413 0 12.4347 0C11.4408 0 10.7311 0.559561 10.7005 0.582517C10.5876 0.673401 10.5216 0.811139 10.5216 0.9565V4.20003L7.76687 10.1677L7.6521 10.2261V20.478C8.4307 20.8453 9.41588 21.0433 10.0434 21.0433H18.8232C19.8649 21.0433 20.7764 20.3412 20.9907 19.3723C21.1007 18.8739 21.0366 18.3718 20.8176 17.9356C21.5244 17.5798 21.9998 16.8518 21.9998 16.0216C21.9998 15.683 21.9223 15.3587 21.775 15.0651C22.4819 14.7093 22.9563 13.9814 22.9563 13.1521Z" fill="black"/>
</svg>
