<svg width="37" height="37" viewBox="0 0 37 37" fill="none" xmlns="http://www.w3.org/2000/svg">
<path d="M33.1067 9.73554C32.3403 10.1063 32.0197 11.0284 32.3904 11.7944C33.4033 13.8867 33.9166 16.142 33.9166 18.5C33.9166 27.0006 27.0006 33.9167 18.5 33.9167C9.99935 33.9167 3.08331 27.0006 3.08331 18.5C3.08331 9.99938 9.99935 3.08334 18.5 3.08334C22.0225 3.08334 25.3317 4.23357 28.0706 6.40944C28.735 6.93977 29.7064 6.82873 30.2367 6.16216C30.7671 5.49596 30.656 4.52564 29.9891 3.99607C26.7465 1.41897 22.6662 0 18.5 0C8.29966 0 0 8.29963 0 18.5C0 28.7004 8.29963 37 18.5 37C28.7004 37 37 28.7004 37 18.5C37 15.6734 36.3827 12.9645 35.1655 10.4518C34.7955 9.68397 33.8704 9.36404 33.1067 9.73554L33.1067 9.73554Z" fill="#1C3947"/>
<path d="M17.4999 9.16699C16.6489 9.16699 15.9583 9.85766 15.9583 10.7087V21.5003C15.9583 22.3513 16.6489 23.042 17.4999 23.042H25.2083C26.0593 23.042 26.7499 22.3513 26.7499 21.5003C26.7499 20.6493 26.0593 19.9587 25.2083 19.9587H19.0416V10.7087C19.0416 9.85766 18.3509 9.16699 17.4999 9.16699Z" fill="#1C3947"/>
</svg>
