<svg width="30" height="27" viewBox="0 0 30 27" fill="none" xmlns="http://www.w3.org/2000/svg">
<path d="M2.42686 10.6601H21.4544L14.8503 4.34242C13.9034 3.34782 13.9034 1.74055 14.8503 0.74595C15.7971 -0.24865 17.3328 -0.24865 18.2876 0.74595L29.2839 11.4081C29.7613 11.8695 30 12.4981 30 13.1904V13.2222C30 13.9144 29.7613 14.543 29.2839 15.0045L18.2956 25.6666C17.3407 26.6612 15.8051 26.6612 14.8582 25.6666C13.9114 24.672 13.9114 23.0648 14.8582 22.0702L21.4624 15.7525H2.43482C1.09012 15.7525 4.32908e-05 14.6146 4.32908e-05 13.2063C-0.00791417 11.7741 1.08217 10.6601 2.42686 10.6601Z" fill="white"/>
</svg>
