<svg width="22" height="23" viewBox="0 0 22 23" fill="none" xmlns="http://www.w3.org/2000/svg">
<path d="M21.3387 20.5758C20.7216 21.8428 18.2598 22.8664 17.2065 22.8478C16.1543 22.8301 16.0714 23.585 10.5293 20.7023C4.98793 17.819 1.97181 11.5398 1.72792 11.1319C1.48372 10.7255 -0.265254 7.82131 0.0343548 5.04272C0.33471 2.26367 1.95224 1.05576 2.53499 0.547086C3.11719 0.0375519 3.74765 -0.0169295 4.12884 0.00349461C4.57945 0.0276496 4.87139 0.0419348 5.20363 0.0775254C5.53553 0.1134 6.04118 0.0661254 6.3935 1.24743C6.74562 2.42862 7.58328 5.32984 7.69557 5.62737C7.80773 5.92519 7.8663 6.26503 7.63649 6.62127C7.40601 6.97829 7.28509 7.20292 6.96601 7.50216C6.64531 7.80128 6.2884 8.17406 6.00518 8.40012C5.68943 8.65025 5.35875 8.92406 5.63031 9.52495C5.9017 10.1254 6.84497 12.0977 8.37479 13.7756C10.3409 15.9326 12.111 16.7262 12.6488 17.069C13.188 17.4136 13.5249 17.403 13.8981 17.0615C14.2697 16.7199 15.498 15.565 15.9388 15.0419C16.3795 14.5173 16.7486 14.6519 17.2505 14.8958C17.7521 15.1404 20.4015 16.8072 20.9409 17.1508C21.4797 17.4938 21.8431 17.6765 21.9601 17.9269C22.0771 18.1782 21.9556 19.3087 21.3387 20.5758Z" fill="white"/>
</svg>
