<svg width="15" height="20" viewBox="0 0 15 20" fill="none" xmlns="http://www.w3.org/2000/svg">
<g opacity="0.5">
<path d="M5.47926 12.2209C5.23979 11.8589 4.93341 11.5406 4.6753 11.1897C4.49498 10.9423 4.29888 10.6887 4.19405 10.406C3.8592 9.49907 4.01946 8.65536 4.65227 7.93606C4.9595 7.58755 5.32053 7.28844 5.65978 6.97012C6.13692 6.52385 6.44854 6.00189 6.47473 5.31442C6.50177 4.5827 6.14246 3.98505 5.487 3.8056C5.1533 3.71452 4.45618 3.66445 4.45446 3.67936C3.45211 3.72886 2.48856 3.93795 1.60672 4.44509C0.80228 4.90742 0.225563 5.56412 0.0653058 6.52337C-0.0700092 7.3301 0.00510031 8.13454 0.289303 8.89483C0.543305 9.57543 0.864201 10.2286 1.16474 10.8913C1.51794 11.6693 1.75101 12.477 1.76994 13.3405C1.77491 13.5633 1.78303 13.7886 1.82555 14.0056C1.96489 14.7353 2.30499 15.323 2.99217 15.643C3.40624 15.8357 3.84286 15.7967 4.27557 15.7344C5.08784 15.6174 5.6206 15.1356 5.78325 14.3728C5.94599 13.6179 5.91416 12.8807 5.47926 12.2209Z" fill="black"/>
<path d="M6.64091 2.56934C6.94231 2.19866 7.06042 1.76223 7.07524 1.23683C7.06558 1.16 7.05842 1.03089 7.03395 0.903701C7.01446 0.797818 6.98273 0.692796 6.9445 0.592074C6.70102 -0.056695 6.09439 -0.193731 5.60673 0.28771C5.12061 0.768385 4.96227 1.81842 5.28461 2.43192C5.6011 3.03454 6.21002 3.0977 6.64091 2.56934Z" fill="black"/>
<path d="M4.32382 2.52211C4.69509 2.15257 4.7809 1.41417 4.50386 0.965505C4.2577 0.566344 3.82738 0.543696 3.53678 0.919827C3.34766 1.16389 3.27026 1.44991 3.27256 1.75915C3.26969 2.02567 3.33228 2.2532 3.45613 2.4362C3.68203 2.76943 4.04077 2.80431 4.32382 2.52211Z" fill="black"/>
<path d="M2.69561 2.76624C2.85157 2.5733 2.89868 2.34319 2.90891 2.10199C2.89754 1.85353 2.8487 1.61816 2.68549 1.42436C2.48585 1.18842 2.20395 1.19014 2.00442 1.42436C1.71725 1.76217 1.71257 2.42374 1.99543 2.76767C2.20051 3.01852 2.49312 3.01852 2.69561 2.76624Z" fill="black"/>
<path d="M1.62223 3.21105C1.79156 2.90735 1.69151 2.39237 1.42031 2.17678C1.21609 2.01414 0.975182 2.05867 0.861366 2.29518C0.810146 2.40431 0.793617 2.5294 0.760742 2.64752C0.787498 2.91872 0.863087 3.15524 1.07113 3.32544C1.26904 3.48779 1.49714 3.43571 1.62223 3.21105Z" fill="black"/>
<path d="M0.727119 4.01557C0.80395 3.89573 0.835006 3.74494 0.88919 3.59777C0.835677 3.4573 0.805381 3.31787 0.734382 3.2053C0.616843 3.01876 0.402972 3.02001 0.26068 3.19049C0.085517 3.39881 0.073001 3.79568 0.235644 4.01671C0.378032 4.20927 0.598495 4.21807 0.727119 4.01557Z" fill="black"/>
<path d="M9.83688 8.05661C9.83858 8.04141 9.15369 7.90333 8.80691 7.90333C8.1267 7.90151 7.6227 8.38247 7.45403 9.09441C7.29398 9.7642 7.45815 10.3502 7.79844 10.9076C8.03992 11.305 8.30885 11.6898 8.51191 12.1086C8.93027 12.9687 8.86224 13.8246 8.29719 14.6097C8.12087 14.8545 7.86314 15.0466 7.62452 15.2381C7.28298 15.5092 6.90389 15.7327 6.57536 16.0189C5.98009 16.5386 5.75428 17.241 5.70975 18.0131C5.66378 18.7922 6.04813 19.3967 6.80021 19.7267C7.20138 19.9025 7.61105 20.0555 8.06142 19.9804C8.8091 19.8548 9.29436 19.3765 9.62205 18.7131C9.71971 18.5146 9.78899 18.2994 9.85245 18.0852C10.1003 17.2566 10.5396 16.5403 11.0879 15.8851C11.5528 15.3265 12.0369 14.7819 12.464 14.1948C12.9399 13.5367 13.2251 12.7819 13.3105 11.9685C13.4118 11.0008 13.0289 10.2146 12.379 9.55445C11.661 8.82818 10.7894 8.3711 9.83688 8.05661Z" fill="black"/>
<path d="M9.36958 6.63407C9.84261 6.12864 9.96951 5.07402 9.62856 4.48078C9.28816 3.88724 8.66777 3.8578 8.25877 4.41847C8.19588 4.50581 8.13654 4.5986 8.08885 4.69579C8.03238 4.81065 7.99052 4.93288 7.96081 5.0056C7.83572 5.51561 7.83342 5.96829 8.02541 6.40558C8.2989 7.0297 8.90228 7.13099 9.36958 6.63407Z" fill="black"/>
<path d="M11.1314 7.12439C11.3002 6.98095 11.4201 6.77817 11.488 6.52034C11.5737 6.22238 11.5754 5.92623 11.4567 5.63964C11.2768 5.20064 10.8562 5.10813 10.5123 5.4276C10.127 5.78691 10.0118 6.52101 10.2713 6.97541C10.468 7.32334 10.8242 7.38422 11.1314 7.12439Z" fill="black"/>
<path d="M12.4502 7.83308C12.8145 7.57677 12.986 6.9388 12.7987 6.5364C12.6684 6.25678 12.3977 6.18052 12.1429 6.35454C11.9322 6.49769 11.824 6.71155 11.7467 6.94808C11.693 7.18401 11.6774 7.41767 11.7758 7.6451C11.9044 7.94192 12.1842 8.02018 12.4502 7.83308Z" fill="black"/>
<path d="M12.6907 8.3602C12.7519 8.60922 12.9584 8.72008 13.1923 8.61707C13.4379 8.50794 13.574 8.30057 13.6712 8.04628C13.6712 7.92348 13.6893 7.79839 13.6678 7.6797C13.6218 7.42054 13.4019 7.31465 13.1609 7.41701C12.842 7.55232 12.6075 8.02191 12.6907 8.3602Z" fill="black"/>
<path d="M14.0098 8.7012C13.9179 8.49966 13.712 8.44003 13.5496 8.58891C13.4513 8.67913 13.3855 8.8048 13.2959 8.92644C13.3088 9.08297 13.2994 9.23597 13.3408 9.37224C13.4111 9.60139 13.6259 9.65147 13.8144 9.50373C14.0296 9.33372 14.1222 8.94823 14.0098 8.7012Z" fill="black"/>
</g>
</svg>
