<svg width="101" height="18" viewBox="0 0 101 18" fill="none" xmlns="http://www.w3.org/2000/svg">
<path d="M38.4282 6.61368L31.8629 6.05035L29.2983 0L26.7337 6.05035L20.1684 6.61368L25.1488 10.9294L23.656 17.3468L29.2983 13.9431L34.9406 17.3459L33.4478 10.9285L38.4282 6.61368Z" fill="#DB4437"/>
<path d="M58.5976 6.61368L52.0323 6.05035L49.4677 0L46.9032 6.05035L40.3378 6.61368L45.3182 10.9294L43.8255 17.3468L49.4677 13.9431L55.11 17.3459L53.6173 10.9285L58.5976 6.61368Z" fill="#DB4437"/>
<path d="M101 6.61368L94.4347 6.05035L91.8701 0L89.3056 6.05035L82.7403 6.61368L87.7206 10.9294L86.2279 17.3468L91.8701 13.9431L97.5124 17.3459L96.0197 10.9285L101 6.61368Z" fill="#CFCFCF"/>
<path d="M18.2597 6.61368L11.6945 6.05035L9.12987 0L6.56531 6.05035L0 6.61368L4.98036 10.9294L3.48761 17.3468L9.12987 13.9431L14.7721 17.3459L13.2794 10.9285L18.2597 6.61368Z" fill="#DB4437"/>
<path d="M79.8865 6.61368L73.3213 6.05035L70.7567 0L68.1921 6.05035L61.6268 6.61368L66.6072 10.9294L65.1144 17.3468L70.7567 13.9431L76.3989 17.3459L74.9062 10.9285L79.8865 6.61368ZM70.7567 12.2304V3.73866L72.3179 7.42348L76.3167 7.76676L73.2838 10.3943L74.1931 14.3029L70.7567 12.2304Z" fill="#DB4437"/>
</svg>
