<svg width="100" height="67" viewBox="0 0 100 67" fill="none" xmlns="http://www.w3.org/2000/svg">
<g filter="url(#filter0_d_1_7017)">
<path d="M10.5265 9.99902H21.5759H89.4735C91.9734 9.99902 94 12.0256 94 14.5255V52.3349C94 54.8348 91.9734 56.8614 89.4735 56.8614H10.5265C8.02657 56.8614 6 54.8348 6 52.3349V14.5255C6 12.0256 8.02657 9.99902 10.5265 9.99902Z" fill="url(#paint0_linear_1_7017)"/>
</g>
<g opacity="0.22">
<ellipse cx="23" cy="48" rx="20" ry="17" fill="white"/>
<ellipse cx="20" cy="50" rx="20" ry="17" fill="#FFF280"/>
</g>
<g opacity="0.22">
<ellipse cx="78" cy="18.5" rx="20" ry="16.5" fill="white"/>
<ellipse cx="80" cy="16.5" rx="20" ry="16.5" fill="#FFF280"/>
<path d="M72.8904 30.4723C68.9723 30.4723 65.7959 29.4051 65.7959 28.3105V30.8311C65.7981 31.9249 68.9734 32.9943 72.8904 32.9943C76.8073 32.9943 79.9826 31.9249 79.9848 30.8311V28.3105C79.9848 29.4051 76.8084 30.4723 72.8904 30.4723Z" fill="#E4AF18"/>
<path d="M72.072 26.5094C68.154 26.5094 64.9775 25.4422 64.9775 24.3477V26.8682C64.9797 27.962 68.155 29.0314 72.072 29.0314C75.989 29.0314 79.1643 27.962 79.1665 26.8682V24.3477C79.1665 25.4422 75.9901 26.5094 72.072 26.5094Z" fill="#F4BF1A"/>
<path d="M73.7092 22.5465C69.7912 22.5465 66.6147 21.4793 66.6147 20.3848V22.9053C66.6169 23.9991 69.7922 25.0685 73.7092 25.0685C77.6262 25.0685 80.8015 23.9991 80.8037 22.9053V20.3848C80.8037 21.4793 77.6273 22.5465 73.7092 22.5465Z" fill="#E4AF18"/>
<path d="M79.1665 16.108C79.1665 17.2022 75.9901 18.2229 72.072 18.2229C68.154 18.2229 64.9775 17.2022 64.9775 16.108C64.9775 15.0135 68.154 14.2598 72.072 14.2598C75.9901 14.2598 79.1665 15.0135 79.1665 16.108Z" fill="#FFD949"/>
<path d="M72.072 18.2232C68.154 18.2232 64.9775 17.1561 64.9775 16.0615V18.5821C64.9797 19.6759 68.155 20.7452 72.072 20.7452C75.989 20.7452 79.1643 19.6759 79.1665 18.5821V16.0615C79.1665 17.1561 75.9901 18.2232 72.072 18.2232Z" fill="#F4BF1A"/>
<path d="M66.0688 17.1689V19.6891C66.2347 19.7698 66.4165 19.8477 66.6146 19.9219V17.4013C66.4165 17.3271 66.2347 17.2493 66.0688 17.1689Z" fill="#DCA815"/>
<path d="M77.5293 17.4013V19.9219C77.7274 19.8477 77.9091 19.7698 78.075 19.6891V17.1689C77.9091 17.2496 77.7274 17.3271 77.5293 17.4013Z" fill="#DCA815"/>
<path d="M67.4331 17.6631V20.184C67.6077 20.2319 67.7897 20.2773 67.9788 20.3202V17.7993C67.7897 17.7564 67.6077 17.711 67.4331 17.6631Z" fill="#DCA815"/>
<path d="M76.165 17.7993V20.3205C76.3541 20.2773 76.5361 20.2319 76.7108 20.184V17.6631C76.5361 17.711 76.3541 17.7564 76.165 17.7993Z" fill="#DCA815"/>
<path d="M68.7979 17.96V20.4812C68.9758 20.5115 69.1572 20.5396 69.3436 20.5648V18.0435C69.1572 18.0183 68.9758 17.9899 68.7979 17.96Z" fill="#DCA815"/>
<path d="M74.8008 18.0439V20.5652C74.9872 20.5396 75.1686 20.5115 75.3465 20.4816V17.96C75.1686 17.9906 74.9872 18.0187 74.8008 18.0439Z" fill="#DCA815"/>
<path d="M70.1621 18.1357V20.6574C70.3414 20.674 70.5231 20.6887 70.7078 20.7006V18.1786C70.5231 18.1667 70.3414 18.1523 70.1621 18.1357Z" fill="#DCA815"/>
<path d="M73.4365 18.1786V20.7006C73.6213 20.6887 73.803 20.674 73.9823 20.6574V18.1357C73.803 18.1523 73.6213 18.1667 73.4365 18.1786Z" fill="#DCA815"/>
<path d="M72.0722 18.2229C71.9808 18.2229 71.8899 18.2218 71.7993 18.2207V20.7427C71.8899 20.7438 71.9808 20.7449 72.0722 20.7449C72.1636 20.7449 72.2545 20.7438 72.345 20.7427V18.2207C72.2545 18.2218 72.1636 18.2229 72.0722 18.2229Z" fill="#DCA815"/>
<path d="M67.7061 21.4922V24.0124C67.872 24.0931 68.0537 24.1709 68.2518 24.2451V21.7246C68.0537 21.6504 67.872 21.5725 67.7061 21.4922Z" fill="#C49214"/>
<path d="M79.1665 21.7246V24.2451C79.3646 24.1709 79.5463 24.0931 79.7122 24.0124V21.4922C79.5463 21.5729 79.3646 21.6504 79.1665 21.7246Z" fill="#C49214"/>
<path d="M69.0703 21.9863V24.5072C69.2449 24.5552 69.4269 24.6006 69.616 24.6434V22.1225C69.4269 22.0796 69.2449 22.0342 69.0703 21.9863Z" fill="#C49214"/>
<path d="M77.8022 22.1225V24.6438C77.9913 24.6006 78.1733 24.5552 78.348 24.5072V21.9863C78.1733 22.0342 77.9913 22.0796 77.8022 22.1225Z" fill="#C49214"/>
<path d="M70.4351 22.2832V24.8045C70.613 24.8347 70.7944 24.8628 70.9808 24.8881V22.3668C70.7944 22.3412 70.613 22.3131 70.4351 22.2832Z" fill="#C49214"/>
<path d="M76.438 22.3664V24.8881C76.6244 24.8625 76.8058 24.8344 76.9837 24.8045V22.2832C76.8058 22.3135 76.6244 22.3416 76.438 22.3664Z" fill="#C49214"/>
<path d="M71.7993 22.46V24.9816C71.9786 24.9982 72.1603 25.0129 72.345 25.0248V22.5028C72.1603 22.4909 71.9786 22.4765 71.7993 22.46Z" fill="#C49214"/>
<path d="M75.0737 22.5028V25.0248C75.2585 25.0129 75.4402 24.9982 75.6195 24.9816V22.46C75.4402 22.4765 75.2585 22.4909 75.0737 22.5028Z" fill="#C49214"/>
<path d="M73.7094 22.5461C73.618 22.5461 73.5271 22.545 73.4365 22.5439V25.0659C73.5271 25.067 73.618 25.0681 73.7094 25.0681C73.8008 25.0681 73.8917 25.067 73.9823 25.0659V22.5439C73.8917 22.545 73.8008 22.5461 73.7094 22.5461Z" fill="#C49214"/>
<path d="M66.0688 25.4551V27.9753C66.2347 28.056 66.4165 28.1334 66.6146 28.208V25.6875C66.4165 25.6132 66.2347 25.5354 66.0688 25.4551Z" fill="#DCA815"/>
<path d="M77.5293 25.6875V28.208C77.7274 28.1338 77.9091 28.056 78.075 27.9753V25.4551C77.9091 25.5358 77.7274 25.6132 77.5293 25.6875Z" fill="#DCA815"/>
<path d="M67.4331 25.9492V28.4701C67.6077 28.5181 67.7897 28.5634 67.9788 28.6063V26.0854C67.7897 26.0425 67.6077 25.9971 67.4331 25.9492Z" fill="#DCA815"/>
<path d="M76.165 26.0854V28.6067C76.3541 28.5634 76.5361 28.5181 76.7108 28.4701V25.9492C76.5361 25.9971 76.3541 26.0425 76.165 26.0854Z" fill="#DCA815"/>
<path d="M68.7979 26.2461V28.7674C68.9758 28.7976 69.1572 28.8257 69.3436 28.851V26.3297C69.1572 26.3041 68.9758 26.276 68.7979 26.2461Z" fill="#DCA815"/>
<path d="M74.8008 26.3293V28.851C74.9872 28.8254 75.1686 28.7973 75.3465 28.7674V26.2461C75.1686 26.2764 74.9872 26.3045 74.8008 26.3293Z" fill="#DCA815"/>
<path d="M70.1621 26.4229V28.9445C70.3414 28.9611 70.5231 28.9758 70.7078 28.9877V26.4657C70.5231 26.4538 70.3414 26.4394 70.1621 26.4229Z" fill="#DCA815"/>
<path d="M73.4365 26.4657V28.9877C73.6213 28.9758 73.803 28.9611 73.9823 28.9445V26.4229C73.803 26.4394 73.6213 26.4538 73.4365 26.4657Z" fill="#DCA815"/>
<path d="M72.0722 26.509C71.9808 26.509 71.8899 26.5079 71.7993 26.5068V29.0288C71.8899 29.0299 71.9808 29.031 72.0722 29.031C72.1636 29.031 72.2545 29.0299 72.345 29.0288V26.5068C72.2545 26.5079 72.1636 26.509 72.0722 26.509Z" fill="#DCA815"/>
<path d="M66.8877 29.418V31.9382C67.0536 32.0189 67.2353 32.0963 67.4334 32.1709V29.6504C67.2353 29.5761 67.0536 29.4983 66.8877 29.418Z" fill="#C49214"/>
<path d="M78.3477 29.6504V32.1709C78.5458 32.0967 78.7275 32.0189 78.8934 31.9382V29.418C78.7275 29.4987 78.5458 29.5761 78.3477 29.6504Z" fill="#C49214"/>
<path d="M68.252 29.9121V32.433C68.4266 32.4809 68.6086 32.5263 68.7977 32.5692V30.0483C68.6086 30.0054 68.4266 29.96 68.252 29.9121Z" fill="#C49214"/>
<path d="M76.9834 30.0483V32.5696C77.1725 32.5263 77.3545 32.4809 77.5291 32.433V29.9121C77.3545 29.96 77.1725 30.0054 76.9834 30.0483Z" fill="#C49214"/>
<path d="M69.6162 30.21V32.7312C69.7941 32.7615 69.9756 32.7896 70.1619 32.8148V30.2936C69.9756 30.268 69.7941 30.2399 69.6162 30.21Z" fill="#C49214"/>
<path d="M75.6191 30.2932V32.8148C75.8055 32.7892 75.987 32.7611 76.1649 32.7312V30.21C75.987 30.2402 75.8055 30.2683 75.6191 30.2932Z" fill="#C49214"/>
<path d="M70.9805 30.3857V32.9074C71.1597 32.924 71.3415 32.9387 71.5262 32.9506V30.4286C71.3415 30.4167 71.1597 30.4023 70.9805 30.3857Z" fill="#C49214"/>
<path d="M74.2549 30.4286V32.9506C74.4396 32.9387 74.6213 32.9239 74.8006 32.9074V30.3857C74.6213 30.4023 74.4396 30.4167 74.2549 30.4286Z" fill="#C49214"/>
<path d="M72.8905 30.4729C72.7991 30.4729 72.7083 30.4718 72.6177 30.4707V32.9927C72.7083 32.9938 72.7991 32.9949 72.8905 32.9949C72.9819 32.9949 73.0728 32.9938 73.1634 32.9927V30.4707C73.0728 30.4718 72.9819 30.4729 72.8905 30.4729Z" fill="#C49214"/>
<path d="M78.9512 27.3643C78.1763 28.2642 75.3906 29.0317 72.0718 29.0317C69.4768 29.0317 67.2085 28.5622 65.9716 27.9274C65.8578 28.0636 65.7959 28.2077 65.7959 28.3579C65.7959 29.4525 68.9723 30.4728 72.8904 30.4728C76.8087 30.4728 79.9848 29.4525 79.9848 28.3579C79.9848 27.9807 79.6069 27.6435 78.9512 27.3643Z" fill="#FCC62D"/>
<path d="M73.7092 25.0684C70.1038 25.0684 67.1288 24.1623 66.6764 23.165C65.618 23.4817 64.9775 23.9036 64.9775 24.3947C64.9775 25.4889 68.154 26.5096 72.072 26.5096C75.9901 26.5096 79.1665 25.4889 79.1665 24.3947C79.1665 24.3464 79.1583 24.2992 79.146 24.2524C77.8447 24.7359 75.8926 25.0684 73.7092 25.0684Z" fill="#FFD949"/>
<path d="M78.8917 19.1416C78.0428 20.0135 75.312 20.7452 72.072 20.7452C69.9797 20.7452 68.0994 20.4397 66.8008 19.9886C66.6805 20.1291 66.6147 20.2769 66.6147 20.4318C66.6147 21.5263 69.7912 22.5467 73.7092 22.5467C77.6273 22.5467 80.8037 21.5263 80.8037 20.4318C80.8037 19.9086 80.077 19.4637 78.8917 19.1416Z" fill="#FCC62D"/>
<path d="M84.0207 33.0313C81.5598 33.0313 79.5649 30.7514 79.5649 27.939C79.5649 25.1266 81.5598 22.8467 84.0207 22.8467C86.4815 22.8467 88.4764 25.1266 88.4764 27.939C88.4764 30.7514 86.4815 33.0313 84.0207 33.0313Z" fill="#FFD949"/>
<path d="M79.5648 27.939C79.5648 25.3379 81.2717 23.1937 83.475 22.886C83.296 22.861 83.1142 22.8467 82.9294 22.8467C80.4685 22.8467 78.4736 25.1266 78.4736 27.939C78.4736 30.7514 80.4685 33.0313 82.9294 33.0313C83.1142 33.0313 83.296 33.0169 83.475 32.992C81.2717 32.6843 79.5648 30.54 79.5648 27.939Z" fill="#F4BF1A"/>
<path d="M79.5645 28.1211H78.4736C78.4773 28.2435 78.4842 28.3648 78.4953 28.4848H79.587C79.5757 28.3648 79.5683 28.2435 79.5645 28.1211Z" fill="#DCA815"/>
<path d="M79.6064 27.2119H78.5159C78.5008 27.3318 78.4899 27.4533 78.4824 27.5756H79.5734C79.5811 27.4533 79.5913 27.3318 79.6064 27.2119Z" fill="#DCA815"/>
<path d="M79.6646 29.0303H78.5732C78.5969 29.1532 78.6242 29.2745 78.6553 29.394H79.7463C79.7154 29.2745 79.6883 29.1532 79.6646 29.0303Z" fill="#DCA815"/>
<path d="M79.9191 29.9395H78.8271C78.8735 30.0635 78.9248 30.1844 78.9794 30.3032H80.0708C80.0162 30.1846 79.9655 30.0633 79.9191 29.9395Z" fill="#DCA815"/>
<path d="M79.796 26.3018H78.7061C78.6706 26.4212 78.6375 26.5422 78.6099 26.6655H79.7023C79.73 26.5425 79.7607 26.4209 79.796 26.3018Z" fill="#DCA815"/>
<path d="M80.1584 25.3926H79.0672C79.0071 25.511 78.9506 25.6321 78.8989 25.7563H79.9909C80.0425 25.6323 80.0983 25.511 80.1584 25.3926Z" fill="#DCA815"/>
<path d="M80.9007 24.3018H79.8082C79.7047 24.4174 79.6063 24.5387 79.5132 24.6655H80.6053C80.6986 24.5387 80.7972 24.4174 80.9007 24.3018Z" fill="#DCA815"/>
<path d="M82.0128 23.3926H80.9192C80.7333 23.4999 80.5551 23.6214 80.3853 23.7563H81.4781C81.6481 23.6214 81.8267 23.4999 82.0128 23.3926Z" fill="#DCA815"/>
<path d="M80.4775 31.0303H79.3857C79.4701 31.1563 79.5592 31.2776 79.6535 31.394H80.7459C80.6517 31.2776 80.5621 31.1563 80.4775 31.0303Z" fill="#DCA815"/>
<path d="M80.1709 31.9404C80.3169 32.0719 80.4699 32.194 80.6299 32.3042H81.7237C81.5629 32.1938 81.4083 32.0725 81.2617 31.9404H80.1709Z" fill="#DCA815"/>
</g>
<defs>
<filter id="filter0_d_1_7017" x="0" y="6.99902" width="100" height="58.8623" filterUnits="userSpaceOnUse" color-interpolation-filters="sRGB">
<feFlood flood-opacity="0" result="BackgroundImageFix"/>
<feColorMatrix in="SourceAlpha" type="matrix" values="0 0 0 0 0 0 0 0 0 0 0 0 0 0 0 0 0 0 127 0" result="hardAlpha"/>
<feOffset dy="3"/>
<feGaussianBlur stdDeviation="3"/>
<feComposite in2="hardAlpha" operator="out"/>
<feColorMatrix type="matrix" values="0 0 0 0 0 0 0 0 0 0 0 0 0 0 0 0 0 0 0.160784 0"/>
<feBlend mode="normal" in2="BackgroundImageFix" result="effect1_dropShadow_1_7017"/>
<feBlend mode="normal" in="SourceGraphic" in2="effect1_dropShadow_1_7017" result="shape"/>
</filter>
<linearGradient id="paint0_linear_1_7017" x1="28" y1="21.7146" x2="28" y2="21.7146" gradientUnits="userSpaceOnUse">
<stop stop-color="#50E988"/>
<stop offset="1" stop-color="#038815"/>
</linearGradient>
</defs>
</svg>
