<svg width="40" height="40" viewBox="0 0 40 40" fill="none" xmlns="http://www.w3.org/2000/svg">
<path d="M38.1651 36.3452H1.81783C0.813599 36.3452 0 37.1588 0 38.1639C0 39.1673 0.813599 39.9809 1.81783 39.9809H38.1643C39.1685 39.9809 39.9821 39.1673 39.9821 38.1639C39.9812 37.1588 39.1676 36.3452 38.1651 36.3452Z" fill="#1C3947"/>
<path d="M4.08932 31.6195C3.08508 31.6195 2.27148 32.4331 2.27148 33.4373C2.27148 34.4416 3.08508 35.256 4.08932 35.256H35.8929C36.8971 35.256 37.7107 34.4416 37.7107 33.4373C37.7107 32.4331 36.8971 31.6195 35.8929 31.6195H35.4393V15.2624H35.8929C36.3958 15.2624 36.8009 14.8556 36.8009 14.3544C36.8009 13.8531 36.3941 13.4463 35.8929 13.4463H4.08932C3.5872 13.4463 3.18125 13.8531 3.18125 14.3544C3.18125 14.8556 3.58805 15.2624 4.08932 15.2624H4.54377V31.6186H4.08932V31.6195ZM31.8036 15.2624V31.6186H26.3518V15.2624H31.8036ZM22.7161 15.2624V31.6186H17.2643V15.2624H22.7161ZM8.17774 15.2624H13.6295V31.6186H8.17774V15.2624Z" fill="#1C3947"/>
<path d="M1.81787 11.8121H38.1643C38.1702 11.8121 38.1771 11.8121 38.1822 11.8121C39.1872 11.8121 40 10.9985 40 9.99425C40 9.19597 39.486 8.51938 38.7719 8.27428L20.7383 0.159571C20.2643 -0.0531903 19.7222 -0.0531903 19.2473 0.159571L1.07235 8.33726C0.290241 8.68959 -0.139537 9.53894 0.0408847 10.3764C0.220455 11.2138 0.960864 11.8121 1.81787 11.8121Z" fill="#1C3947"/>
</svg>
