<svg width="38" height="40" viewBox="0 0 38 40" fill="none" xmlns="http://www.w3.org/2000/svg">
<path d="M35.3329 38.288L35.3325 38.2882C35.2819 38.3228 35.0802 38.4155 34.5869 38.4299C34.1165 38.4436 33.5085 38.3831 32.7717 38.2477C31.2987 37.977 29.5007 37.4444 27.6078 36.8324C26.8805 36.5972 26.1323 36.348 25.3896 36.1006C24.2421 35.7183 23.1076 35.3403 22.0832 35.0254C20.4296 34.5171 18.8106 34.0884 17.6697 34.0884C8.60188 34.0884 1.25096 26.7375 1.25096 17.6697C1.25096 8.60188 8.60188 1.25096 17.6697 1.25096C26.7375 1.25096 34.0884 8.60188 34.0884 17.6697C34.0884 19.3353 34.4603 21.362 34.8989 23.4152C35.0474 24.1108 35.2039 24.8105 35.3606 25.5112C35.6788 26.9347 35.9981 28.3627 36.2545 29.7704C36.6366 31.8675 36.847 33.7647 36.7043 35.2971C36.5617 36.829 36.0916 37.7704 35.3329 38.288Z" stroke="#737D6D" stroke-width="2.5"/>
</svg>
