<svg width="22" height="22" viewBox="0 0 22 22" fill="none" xmlns="http://www.w3.org/2000/svg">
<path fill-rule="evenodd" clip-rule="evenodd" d="M11 0C4.95 0 0 4.95 0 11C0 17.05 4.95 22 11 22C17.05 22 22 17.05 22 11C22 4.95 17.05 0 11 0ZM18.59 6.6H15.4C15.07 5.17 14.52 3.96 13.86 2.64C15.84 3.41 17.6 4.73 18.59 6.6ZM11 2.2C11.88 3.52 12.65 4.95 13.09 6.6H8.91C9.35 5.06 10.12 3.52 11 2.2ZM2.53 13.2C2.31 12.54 2.2 11.77 2.2 11C2.2 10.23 2.31 9.46 2.53 8.8H6.27C6.16 9.57 6.16 10.23 6.16 11C6.16 11.77 6.27 12.43 6.27 13.2H2.53ZM3.41 15.4H6.6C6.93 16.83 7.48 18.04 8.14 19.36C6.16 18.59 4.4 17.27 3.41 15.4ZM6.6 6.6H3.41C4.51 4.73 6.16 3.41 8.14 2.64C7.48 3.96 6.93 5.17 6.6 6.6ZM11 19.8C10.12 18.48 9.35 17.05 8.91 15.4H13.09C12.65 16.94 11.88 18.48 11 19.8ZM13.53 13.2H8.47C8.36 12.43 8.25 11.77 8.25 11C8.25 10.23 8.36 9.57 8.47 8.8H13.64C13.75 9.57 13.86 10.23 13.86 11C13.86 11.77 13.64 12.43 13.53 13.2ZM13.86 19.36C14.52 18.15 15.07 16.83 15.4 15.4H18.59C17.6 17.27 15.84 18.59 13.86 19.36ZM15.84 13.2C15.95 12.43 15.95 11.77 15.95 11C15.95 10.23 15.84 9.57 15.84 8.8H19.58C19.8 9.46 19.91 10.23 19.91 11C19.91 11.77 19.8 12.54 19.58 13.2H15.84Z" fill="#DB4437"/>
</svg>
