<svg width="40" height="40" viewBox="0 0 40 40" fill="none" xmlns="http://www.w3.org/2000/svg">
<path d="M40 19.9975C39.9991 19.5918 39.7884 19.2154 39.443 19.0025L35.3779 16.4965L39.4473 13.9636C39.7905 13.75 39.9994 13.3747 40 12.9705C40.0006 12.5663 39.7929 12.1903 39.4503 11.9757L20.6222 0.178828C20.2417 -0.0596092 19.7583 -0.0596092 19.3778 0.178828L0.549687 11.9757C0.207188 12.1903 -0.000545831 12.5663 1.07723e-06 12.9705C0.000626076 13.3747 0.209454 13.7501 0.552656 13.9636L4.59421 16.4791L0.550862 19.0064C0.207894 19.2207 -0.00030868 19.5968 8.19158e-05 20.0012C0.00047254 20.4057 0.209378 20.7813 0.552737 20.995L4.59429 23.5105L0.550862 26.0376C0.208441 26.2517 0.000316311 26.6269 8.19158e-05 27.0307C-0.000152479 27.4345 0.207581 27.81 0.549768 28.0244L19.3778 39.8212C19.5682 39.9405 19.7841 40.0001 20 40.0001C20.216 40.0001 20.432 39.9405 20.6222 39.8212L39.4503 28.0244C39.7936 27.8093 40.0015 27.4321 40 27.0271C39.9985 26.622 39.7879 26.2463 39.443 26.0338L35.3779 23.5278L39.4473 20.995C39.7918 20.7806 40.0009 20.4032 40 19.9975ZM3.38437 12.9656L20 2.55492L36.6157 12.9656C36.456 13.065 20.4762 23.0109 20 23.3073L3.38437 12.9656ZM36.608 27.0395L20 37.4453L3.38109 27.0326L6.80991 24.8896L19.3808 32.7138C19.5703 32.8317 19.7852 32.8907 20 32.8907C20.2149 32.8907 20.4297 32.8317 20.6193 32.7138L33.1555 24.9111L36.608 27.0395ZM20 30.3385L3.38632 19.9981L6.80991 17.8583L19.3808 25.6825C19.5703 25.8005 19.7852 25.8595 20 25.8595C20.2149 25.8595 20.4297 25.8005 20.6193 25.6825L33.1555 17.8799L36.6027 20.0049C36.5075 20.0642 20.4399 30.0647 20 30.3385Z" fill="#737D6D"/>
</svg>
