<svg width="39" height="39" viewBox="0 0 39 39" fill="none" xmlns="http://www.w3.org/2000/svg">
<path d="M2.29545 6.96368L2.3273 6.93183L7.41979 1.83935L7.45404 1.80509L7.49084 1.77358C7.77609 1.52936 8.33751 1.14474 9.06038 1.2827C9.78453 1.4209 10.1513 1.97656 10.3208 2.34112L14.4183 10.0292L14.4256 10.043L14.4326 10.0569C14.6472 10.485 14.7492 10.973 14.6661 11.4865C14.5848 11.9889 14.3436 12.4118 14.0478 12.7536L14.0183 12.7876L13.9864 12.8195L12.1192 14.6867L11.2336 13.8011L12.1192 14.6867C12.0175 14.7885 11.9308 14.932 11.8935 15.1813C11.9167 15.6602 12.1954 16.4731 13.0008 17.6952C13.8453 18.9766 14.6653 20.0493 15.4574 20.9238L16.7516 22.2585C17.1333 22.64 17.6273 23.1146 18.2402 23.6833L18.2421 23.6851C18.7857 24.1916 19.7401 24.9093 21.1564 25.8496C22.5594 26.781 23.416 27.0623 23.8375 27.0623C24.0548 27.0623 24.186 27.0013 24.3099 26.8774L24.3101 26.8771L26.5179 24.6707C26.8494 24.3392 27.2935 24.0497 27.8525 23.9749C28.4124 23.9 28.9161 24.0633 29.3236 24.3148L36.7293 28.6728C36.7311 28.6739 36.733 28.675 36.7348 28.676C37.1681 28.9278 37.5825 29.3636 37.6811 30.0161M2.29545 6.96368L36.4427 30.2032M2.29545 6.96368L2.26597 6.99774C1.76709 7.57406 1.42679 8.24863 1.33429 9.01391C1.1041 10.6507 1.36637 12.4325 2.03146 14.3229L2.03174 14.3237C2.67964 16.1612 3.45013 17.8212 4.3516 19.2931C5.23057 20.7283 6.26488 22.1919 7.45289 23.684C8.61231 25.1403 9.45702 26.151 9.96348 26.6892C10.4351 27.1902 10.8198 27.5887 11.1145 27.8834L11.1229 27.8918L11.1315 27.9001L12.2348 28.9623L12.2438 28.9709L12.2528 28.9793C13.053 29.7197 14.102 30.5927 15.3898 31.5948L15.3905 31.5953C16.6944 32.6085 18.1032 33.6053 19.616 34.5846C21.1931 35.6054 22.9003 36.421 24.7365 37.034C26.5999 37.6561 28.3592 37.8908 29.9847 37.6611M2.29545 6.96368L37.1544 31.581M37.6811 30.0161L36.4427 30.2032M37.6811 30.0161C37.6811 30.0161 37.6811 30.0161 37.6811 30.0161L36.4427 30.2032M37.6811 30.0161C37.7721 30.6186 37.5635 31.1741 37.1573 31.5781L37.1586 31.5768L36.273 30.6912M36.4427 30.2032C36.4706 30.3875 36.4149 30.5506 36.273 30.6912M36.273 30.6912L37.1544 31.581M36.273 30.6912L37.1544 31.581M37.1544 31.581L32.0661 36.6693L32.0342 36.7011L32.0002 36.7306C31.4243 37.2291 30.7483 37.5699 29.9847 37.6611M29.9847 37.6611C29.9904 37.6603 29.996 37.6595 30.0016 37.6587L29.8238 36.4189L29.9651 37.6634C29.9717 37.6626 29.9782 37.6619 29.9847 37.6611ZM13.313 10.6183C13.5398 11.0705 13.4682 11.5095 13.1008 11.9339L8.3054 2.72496C8.70193 2.38546 8.99899 2.44249 9.19659 2.89471L13.313 10.6183Z" stroke="#737D6D" stroke-width="2.5"/>
</svg>
