<svg width="30" height="30" viewBox="0 0 30 30" fill="none" xmlns="http://www.w3.org/2000/svg">
<path opacity="0.5" fill-rule="evenodd" clip-rule="evenodd" d="M21.4286 18.8572H20.0572L19.5428 18.3428C21.2572 16.4572 22.2857 13.8857 22.2857 11.1428C22.2857 4.98882 17.2969 0 11.1428 0C4.98882 0 0 4.98882 0 11.1428C0 17.2969 4.98882 22.2857 11.1428 22.2857C13.8857 22.2857 16.4571 21.2572 18.3428 19.5428L18.8572 20.0572V21.4286L27.4286 30L30 27.4286L21.4286 18.8572ZM11.1428 18.8572C6.88235 18.8571 3.42854 15.4033 3.42854 11.1428C3.42854 6.88235 6.88235 3.42854 11.1428 3.42854C15.4033 3.42854 18.8572 6.88235 18.8571 11.1428C18.8657 13.1914 18.0557 15.1586 16.6071 16.6072C15.1586 18.0557 13.1914 18.8657 11.1428 18.8572V18.8572Z" fill="black"/>
</svg>
