<svg width="36" height="36" viewBox="0 0 36 36" fill="none" xmlns="http://www.w3.org/2000/svg">
<path d="M34.2667 0.661625L34.2667 0.661657L35.32 5.97274C35.6476 6.02817 35.895 6.31142 35.8982 6.65122L35.8982 6.65218L35.8982 35.1266C35.8982 35.5104 35.587 35.8216 35.2032 35.8216H3.16949H3.16937C1.476 35.8196 0.103672 34.4473 0.101678 32.7539L0.101678 32.7538L0.101678 12.5845V12.5844H0.203398C0.200358 11.1737 1.19355 9.957 2.57627 9.67759L34.2667 0.661625ZM34.2667 0.661625C34.1921 0.286227 33.8282 0.0420201 33.4529 0.114696M34.2667 0.661625L2.47455 9.59552V6.65218C2.47455 6.2684 2.7857 5.95724 3.16949 5.95724H4.06769L33.4465 0.115984C33.4488 0.115458 33.4509 0.115035 33.4529 0.114696M33.4529 0.114696C33.4622 0.113114 33.4686 0.113349 33.4694 0.113379L33.4695 0.113382V0.215102M33.4529 0.114696C33.4518 0.114904 33.4508 0.115114 33.4497 0.115327L33.4695 0.215102M33.4695 0.215102L33.4693 0.215176L34.1669 0.681445C34.103 0.36007 33.7909 0.151331 33.4695 0.215102ZM2.20669 14.0769C2.22963 14.0931 2.25416 14.1054 2.2785 14.1175C2.29067 14.1236 2.3028 14.1297 2.31466 14.1362C2.36657 14.166 2.41992 14.193 2.47455 14.2173M2.20669 14.0769L2.57627 14.1495V14.2555C2.57105 14.2538 2.56582 14.2523 2.5606 14.2508C2.55277 14.2486 2.54494 14.2464 2.53712 14.2436M2.20669 14.0769C2.10006 14.0098 2.0007 13.9319 1.91009 13.8444L2.20669 14.0769ZM2.47455 14.2173C2.49523 14.2264 2.51608 14.2352 2.53712 14.2436M2.47455 14.2173V14.1053M2.47455 14.2173V14.1053M2.53712 14.2436L2.57472 14.1491C2.57416 14.1489 2.5736 14.1486 2.57304 14.1484C2.57264 14.1483 2.57225 14.1481 2.57187 14.148L2.53712 14.2436ZM2.47455 14.1053C2.43744 14.0876 2.40098 14.0684 2.36524 14.048L2.36368 14.0471C2.35008 14.0396 2.33454 14.0318 2.32147 14.0253C2.31597 14.0225 2.3109 14.02 2.3066 14.0178C2.28981 14.0092 2.27673 14.0018 2.26542 13.9938L2.2655 13.9937L2.26087 13.9908C2.16042 13.9276 2.06678 13.8542 1.98136 13.7718L2.47455 14.1053ZM2.47455 10.9465C2.508 10.9322 2.54192 10.919 2.57627 10.9067V11.0151C2.54187 11.0282 2.50795 11.0424 2.47455 11.0576V10.9465ZM1.91391 11.4636C1.93394 11.4411 1.95467 11.4191 1.97611 11.3975C1.9762 11.3974 1.97629 11.3973 1.97638 11.3972L1.94201 11.3631L1.90687 11.3282L1.90415 11.3255L1.84061 11.405L1.84358 11.4074L1.91391 11.4636ZM3.16949 15.6522H34.5083V21.3809H25.7118C25.328 21.3809 25.0168 21.6921 25.0168 22.0758V28.008C25.0168 28.3918 25.328 28.703 25.7118 28.703H34.5083V34.4317H3.16949C2.24278 34.4317 1.49155 33.6805 1.49155 32.7538V15.1437C1.51047 15.1555 1.52918 15.1669 1.54731 15.1779C1.55858 15.1848 1.56962 15.1915 1.58034 15.1981L1.58061 15.1983C1.68394 15.2614 1.79092 15.3183 1.90083 15.3688L1.90156 15.3691C1.96112 15.3959 2.02279 15.4231 2.08514 15.4468L2.08567 15.447C2.20366 15.4911 2.3243 15.5275 2.44682 15.5562C2.46082 15.5597 2.47675 15.564 2.49381 15.5686C2.53179 15.5789 2.57541 15.5908 2.61599 15.5982C2.79821 15.6328 2.98327 15.6509 3.16881 15.6522H3.16949ZM1.41513 15.0934C1.41522 15.0934 1.4153 15.0935 1.41539 15.0935L1.47348 15.01L1.41513 15.0934ZM11.195 5.95724L33.0375 1.61436L33.9 5.95724H11.195ZM34.5083 27.3131H26.4067V22.7708H34.5083V27.3131ZM23.1777 14.2623H15.195C15.5667 12.1105 17.5862 10.632 19.7619 10.9442C21.5031 11.1942 22.8793 12.5378 23.1777 14.2623ZM34.5083 14.2623H24.5803C24.1934 11.3243 21.5194 9.22929 18.5644 9.56934C16.0823 9.85499 14.118 11.793 13.7925 14.2623H3.86442V7.34712H34.5083V14.2623Z" fill="#737D6D" stroke="#737D6D" stroke-width="0.2"/>
<path d="M29.271 8.17737H29.0167V8.43167V9.61811V9.87241H29.271H31.9827V12.5842V12.8385H32.237H33.4235H33.6778V12.5842V9.02489C33.6778 8.55673 33.2983 8.17737 32.8302 8.17737H29.271Z" fill="#737D6D" stroke="#737D6D" stroke-width="0.5"/>
<path d="M4.69464 12.5842V12.8385H4.94894H6.13537H6.38967V12.5842V9.87241H9.10146H9.35576V9.61811V8.43167V8.17737H9.10146H5.54216C5.07411 8.17737 4.69464 8.55685 4.69464 9.0249V12.5842Z" fill="#737D6D" stroke="#737D6D" stroke-width="0.5"/>
<rect x="27.2413" y="24.1987" width="1.68644" height="1.68644" fill="#737D6D" stroke="#737D6D" stroke-width="0.5"/>
</svg>
