<svg width="33" height="37" viewBox="0 0 33 37" fill="none" xmlns="http://www.w3.org/2000/svg">
<path d="M1.8297 15.1421H30.6616C31.1104 15.1421 31.4776 15.511 31.4776 15.9618V32.7076C31.4776 34.5177 30.0156 35.9863 28.2136 35.9863H4.27769C2.4757 35.9863 1.0137 34.5177 1.0137 32.7076V16.3771V15.9618C1.0137 15.511 1.3809 15.1421 1.8297 15.1421ZM31.4776 11.123V8.66396C31.4776 6.85385 30.0156 5.38527 28.2136 5.38527H24.9497V1.83337C24.9497 1.38255 24.5825 1.0137 24.1337 1.0137H21.4137C20.9649 1.0137 20.5977 1.38255 20.5977 1.83337V5.38527H11.8937V1.83337C11.8937 1.38255 11.5265 1.0137 11.0777 1.0137H8.35768C7.90888 1.0137 7.54169 1.38255 7.54169 1.83337V5.38527H4.27769C2.4757 5.38527 1.0137 6.85385 1.0137 8.66396V11.123C1.0137 11.5738 1.3809 11.9426 1.8297 11.9426H30.6616C31.1104 11.9426 31.4776 11.5738 31.4776 11.123Z" stroke="#1C3947" stroke-width="2"/>
</svg>
