<svg width="36" height="36" viewBox="0 0 36 36" fill="none" xmlns="http://www.w3.org/2000/svg">
<path d="M8.45895 33.2693C0.0394802 28.0082 -2.52952 16.8783 2.73115 8.45948C7.99222 0.0400058 19.1215 -2.52939 27.541 2.73168C35.9598 7.99236 38.5298 19.122 33.2688 27.5415C28.0081 35.9603 16.8778 38.53 8.45895 33.2693L8.45895 33.2693ZM26.8343 4.39298C19.8183 0.00888657 8.77654 2.15013 4.39245 9.16614C0.00835632 16.1822 2.1496 27.2239 9.16561 31.608C16.1816 35.9921 27.2234 33.8509 31.6075 26.8348C35.9916 19.8188 33.8503 8.77708 26.8343 4.39298L26.8343 4.39298ZM24.6874 7.36202C24.6874 7.36202 15.4067 12.2409 13.9441 14.5815L13.149 15.8539C11.6869 18.1938 11.2837 28.8421 11.2837 28.8421C11.2837 28.8421 20.4919 23.9223 21.954 21.5824L22.8533 20.1433C24.3158 17.8027 24.6874 7.36202 24.6874 7.36202L24.6874 7.36202ZM16.4098 20.5453C15.0043 19.6671 14.5769 17.8158 15.4552 16.4103C16.3334 15.0049 18.1847 14.5775 19.5901 15.4557C20.9956 16.3339 21.423 18.1852 20.5448 19.5907C19.6665 20.9961 17.8152 21.4235 16.4098 20.5453L16.4098 20.5453Z" fill="#7A7A7A"/>
</svg>
