<svg width="20" height="20" viewBox="0 0 20 20" fill="none" xmlns="http://www.w3.org/2000/svg">
<path d="M10.5863 1.76805V1.17188H11.1158C11.4394 1.17188 11.7017 0.909531 11.7017 0.585938C11.7017 0.262344 11.4394 0 11.1158 0H8.88496C8.56136 0 8.29902 0.262344 8.29902 0.585938C8.29902 0.909531 8.56136 1.17188 8.88496 1.17188H9.41441V1.76805C5.77266 2.05273 2.85793 4.96742 2.57324 8.60922H17.4274C17.1428 4.96742 14.2281 2.05273 10.5863 1.76805V1.76805ZM7.41367 5.14078C6.6918 5.57219 6.11952 6.20062 5.75874 6.95816C5.65836 7.16898 5.44828 7.2923 5.22933 7.2923C5.14487 7.2923 5.05914 7.27398 4.97781 7.23523C4.68566 7.09609 4.5616 6.74645 4.70074 6.4543C5.16125 5.48734 5.89148 4.68527 6.8125 4.13484C7.09019 3.96883 7.44996 4.05941 7.61605 4.33723C7.78203 4.615 7.69144 4.97477 7.41367 5.14078ZM9.57066 4.54652C9.4164 4.54652 9.26105 4.55496 9.10886 4.5716C9.08723 4.57398 9.06573 4.57512 9.04449 4.57512C8.7494 4.57512 8.49554 4.35285 8.46273 4.05277C8.42757 3.73109 8.65984 3.4418 8.98152 3.40664C9.17581 3.38543 9.37402 3.37465 9.57066 3.37465C9.89426 3.37465 10.1566 3.63699 10.1566 3.96059C10.1566 4.28418 9.89426 4.54652 9.57066 4.54652V4.54652Z" fill="white"/>
<path d="M19.6094 9.78125H0.390625C0.174883 9.78125 2.98023e-07 9.95613 2.98023e-07 10.1719C2.98023e-07 11.3368 0.944414 12.2812 2.10938 12.2812H5.5093C5.02301 12.4203 4.59465 12.7288 4.31043 13.1627L2.91512 15.2923H0V20.0002H10.6092C11.5096 20.0002 12.3673 19.6167 12.9678 18.9457L17.2238 14.2588C17.7178 13.7067 17.5933 12.8424 16.9636 12.4522C16.8085 12.356 16.6376 12.2999 16.4642 12.2812H17.8906C19.0556 12.2812 20 11.3368 20 10.1718C20 9.95613 19.8251 9.78125 19.6094 9.78125ZM15.5705 12.5524L11.1808 16.2378C10.8958 16.477 10.5355 16.6082 10.1634 16.6082H8.42773C7.81883 16.6082 7.32523 16.1146 7.32523 15.5056C7.32523 14.8968 7.81887 14.4031 8.42773 14.4031H10.0638C10.6727 14.4031 11.1662 13.9095 11.1662 13.3006C11.1662 12.8405 10.8843 12.4464 10.4838 12.2812H16.2095C15.9796 12.3058 15.7564 12.3964 15.5705 12.5524H15.5705Z" fill="white"/>
</svg>
