<svg width="115" height="115" viewBox="0 0 115 115" fill="none" xmlns="http://www.w3.org/2000/svg">
<path d="M115 57.5C115 89.2565 89.2565 115 57.5 115C25.7435 115 0 89.2565 0 57.5C0 25.7435 25.7435 0 57.5 0C89.2565 0 115 25.7435 115 57.5ZM50.849 87.9458L93.5103 45.2845C94.9589 43.8359 94.9589 41.4869 93.5103 40.0383L88.2641 34.7921C86.8155 33.3433 84.4666 33.3433 83.0177 34.7921L48.2258 69.5838L31.9823 53.3403C30.5337 51.8917 28.1847 51.8917 26.7359 53.3403L21.4897 58.5865C20.0411 60.0351 20.0411 62.384 21.4897 63.8326L45.6026 87.9456C47.0515 89.3944 49.4002 89.3944 50.849 87.9458V87.9458Z" fill="#51951D"/>
</svg>
