<svg width="40" height="35" viewBox="0 0 40 35" fill="none" xmlns="http://www.w3.org/2000/svg">
<path d="M38.75 27.5H12.5V26.25C12.5 25.5625 11.9375 25 11.25 25H8.75C8.0625 25 7.5 25.5625 7.5 26.25V27.5H1.25C0.5625 27.5 0 28.0625 0 28.75V31.25C0 31.9375 0.5625 32.5 1.25 32.5H7.5V33.75C7.5 34.4375 8.0625 35 8.75 35H11.25C11.9375 35 12.5 34.4375 12.5 33.75V32.5H38.75C39.4375 32.5 40 31.9375 40 31.25V28.75C40 28.0625 39.4375 27.5 38.75 27.5ZM38.75 15H32.5V13.75C32.5 13.0625 31.9375 12.5 31.25 12.5H28.75C28.0625 12.5 27.5 13.0625 27.5 13.75V15H1.25C0.5625 15 0 15.5625 0 16.25V18.75C0 19.4375 0.5625 20 1.25 20H27.5V21.25C27.5 21.9375 28.0625 22.5 28.75 22.5H31.25C31.9375 22.5 32.5 21.9375 32.5 21.25V20H38.75C39.4375 20 40 19.4375 40 18.75V16.25C40 15.5625 39.4375 15 38.75 15ZM38.75 2.5H22.5V1.25C22.5 0.562504 21.9375 0 21.25 0H18.75C18.0625 0 17.5 0.562504 17.5 1.25V2.5H1.25C0.5625 2.5 0 3.0625 0 3.75V6.25C0 6.9375 0.5625 7.5 1.25 7.5H17.5V8.75C17.5 9.4375 18.0625 10 18.75 10H21.25C21.9375 10 22.5 9.4375 22.5 8.75V7.5H38.75C39.4375 7.5 40 6.9375 40 6.25V3.75C40 3.0625 39.4375 2.5 38.75 2.5Z" fill="#1C3947"/>
</svg>
