<svg width="55" height="48" viewBox="0 0 55 48" fill="none" xmlns="http://www.w3.org/2000/svg">
<circle cx="20.4309" cy="15.5691" r="3.72414" fill="#6A6A6A"/>
<path d="M51 29.2759C49.2414 27.6207 47.0172 26.5345 44.5862 26.2241V7.2931C44.5862 5.27586 43.7586 3.46551 42.4655 2.12069C41.1207 0.775863 39.3103 0 37.2931 0H7.2931C5.27586 0 3.46552 0.827584 2.12069 2.12069C0.775862 3.46551 0 5.27586 0 7.2931V31.1379V33.3621V38.1724C0 40.1896 0.827586 42 2.12069 43.3448C3.46552 44.6896 5.27586 45.4655 7.2931 45.4655H36.3103C38.2241 47.0172 40.6034 48 43.2414 48C46.2931 48 49.0345 46.7586 51 44.7931C52.9655 42.8276 54.2069 40.0862 54.2069 37.0345C54.2069 33.9827 52.9655 31.2414 51 29.2759ZM2.74138 7.2931C2.74138 6.05172 3.25862 4.91379 4.08621 4.13793C4.91379 3.31034 6.05172 2.7931 7.2931 2.7931H37.2931C38.5345 2.7931 39.6724 3.31034 40.5 4.13793C41.3276 4.96551 41.8448 6.10344 41.8448 7.34483V23.4828L34.1896 15.8276C33.6724 15.3103 32.7931 15.2586 32.2241 15.8276L20.6897 27.4138L12.8793 19.5517C12.3621 19.0345 11.4828 18.9828 10.9138 19.5517L2.74138 27.8276V7.2931ZM7.24138 42.8276V42.7241C6 42.7241 4.86207 42.2069 4.03448 41.3793C3.25862 40.5517 2.74138 39.4138 2.74138 38.1724V33.3621V31.7586L11.8966 22.5517L19.7069 30.3621C20.2241 30.8793 21.1034 30.8793 21.6724 30.3621L33.2069 18.7759L40.7586 26.3793C40.6034 26.431 40.4483 26.4828 40.2931 26.5345C40.0862 26.5862 39.8793 26.6379 39.6207 26.7414C39.4138 26.7931 39.2069 26.8965 39 26.9483C38.8448 27 38.7414 27.0517 38.5862 27.1552C38.3793 27.2586 38.2241 27.3103 38.069 27.4138C37.8103 27.569 37.5517 27.7241 37.2931 27.8793C37.1379 27.9828 37.0345 28.0345 36.8793 28.1379C36.7759 28.1896 36.7241 28.2414 36.6207 28.2931C36.1552 28.6034 35.7414 28.9655 35.3793 29.3793C33.4138 31.3448 32.1724 34.0862 32.1724 37.1379C32.1724 37.9138 32.2759 38.6379 32.431 39.4138C32.4827 39.6207 32.5345 39.7758 32.5862 39.9827C32.7414 40.5 32.8965 41.0172 33.1034 41.5345V41.5862C33.3103 42 33.5172 42.4655 33.7759 42.8276H7.24138ZM48.9827 42.8276C47.4827 44.3276 45.4655 45.2069 43.1896 45.2069C41.0172 45.2069 39 44.3276 37.5517 42.931C37.3448 42.7241 37.1379 42.4655 36.931 42.2586C36.7759 42.1034 36.6207 41.8965 36.4655 41.7414C36.2586 41.4827 36.1034 41.1724 35.9483 40.8621C35.8448 40.6552 35.7414 40.5 35.6379 40.2931C35.5345 40.0345 35.431 39.7241 35.3793 39.4138C35.3276 39.2069 35.2241 38.9483 35.1724 38.7414C35.069 38.2241 35.0172 37.6552 35.0172 37.0862C35.0172 34.8103 35.9483 32.7931 37.3965 31.2931C38.8448 29.7931 40.9138 28.9138 43.1896 28.9138C45.4655 28.9138 47.4827 29.8448 48.9827 31.2931C50.4827 32.7931 51.3621 34.8103 51.3621 37.0862C51.3621 39.3103 50.431 41.3276 48.9827 42.8276Z" fill="#6A6A6A"/>
<path d="M44.1727 31.5003C44.0693 31.3968 43.9141 31.2934 43.7072 31.19C43.552 31.1383 43.3969 31.0865 43.2416 31.0865C43.1899 31.0865 43.1899 31.0865 43.1899 31.0865C43.1382 31.0865 43.1382 31.0865 43.1382 31.0865C42.9831 31.0865 42.8279 31.1383 42.6726 31.19C42.5175 31.2417 42.3623 31.3452 42.2072 31.5003L39.0003 34.7072C38.483 35.2244 38.483 36.1038 39.0003 36.6727C39.5175 37.19 40.3968 37.19 40.9658 36.6727L41.7934 35.8451V41.5348C41.7934 42.3107 42.4141 42.9314 43.1899 42.9314C43.9658 42.9314 44.5865 42.3107 44.5865 41.5348V35.8451L45.4141 36.6727C45.9313 37.19 46.8106 37.19 47.3796 36.6727C47.8968 36.1555 47.8968 35.2762 47.3796 34.7072L44.1727 31.5003Z" fill="#6A6A6A"/>
</svg>
