<svg width="39" height="35" viewBox="0 0 39 35" fill="none" xmlns="http://www.w3.org/2000/svg">
<path d="M25.6666 19.4444C25.6666 22.8808 22.8808 25.6666 19.4444 25.6666C16.008 25.6666 13.2222 22.8808 13.2222 19.4444C13.2222 16.008 16.008 13.2222 19.4444 13.2222C22.8808 13.2222 25.6666 16.008 25.6666 19.4444Z" fill="white"/>
<path d="M13.611 0L10.0527 3.88887H3.88887C1.74999 3.88887 0 5.63885 0 7.77773V31.1109C0 33.2498 1.74999 34.9998 3.88887 34.9998H34.9998C37.1387 34.9998 38.8887 33.2498 38.8887 31.1109V7.77773C38.8887 5.63885 37.1387 3.88887 34.9998 3.88887H28.8359L25.2776 0H13.611ZM19.4443 29.1665C14.0777 29.1665 9.72216 24.811 9.72216 19.4443C9.72216 14.0777 14.0777 9.72216 19.4443 9.72216C24.811 9.72216 29.1665 14.0777 29.1665 19.4443C29.1665 24.811 24.811 29.1665 19.4443 29.1665Z" fill="white"/>
</svg>
