<svg width="85" height="75" viewBox="0 0 85 75" fill="none" xmlns="http://www.w3.org/2000/svg">
<circle cx="31.9236" cy="24.3261" r="5.81898" fill="#1C3947"/>
<path d="M79.6877 45.7437C76.9399 43.1574 73.4646 41.4602 69.6661 40.9753V11.3955C69.6661 8.24356 68.373 5.41489 66.3526 3.31359C64.2513 1.21229 61.4226 0 58.2706 0H11.3955C8.24356 0 5.41488 1.29311 3.31359 3.31359C1.21229 5.41489 0 8.24356 0 11.3955V48.6532V52.1284V59.6446C0 62.7965 1.29311 65.6252 3.31359 67.7265C5.41489 69.8278 8.24356 71.0401 11.3955 71.0401H56.7351C59.7254 73.4646 63.4431 75.0002 67.5648 75.0002C72.3332 75.0002 76.6166 73.0606 79.6877 69.9894C82.7589 66.9183 84.6985 62.6349 84.6985 57.8666C84.6985 53.0982 82.7589 48.8148 79.6877 45.7437ZM4.28342 11.3955C4.28342 9.45585 5.09161 7.67782 6.38472 6.46553C7.67782 5.17243 9.45585 4.36424 11.3955 4.36424H58.2706C60.2103 4.36424 61.9883 5.17243 63.2814 6.46553C64.5745 7.75864 65.3827 9.53666 65.3827 11.4763V36.6919L53.4215 24.7307C52.6133 23.9225 51.2394 23.8417 50.3504 24.7307L32.3277 42.8342L20.124 30.5497C19.3158 29.7415 17.9419 29.6606 17.0529 30.5497L4.28342 43.4807V11.3955ZM11.3147 66.9183V66.7567C9.37503 66.7567 7.597 65.9485 6.3039 64.6554C5.09161 63.3623 4.28342 61.5842 4.28342 59.6446V52.1284V49.623L18.5884 35.2372L30.7921 47.4409C31.6003 48.2491 32.9742 48.2491 33.8632 47.4409L51.8859 29.3374L63.6855 41.2178C63.4431 41.2986 63.2006 41.3794 62.9581 41.4602C62.6349 41.5411 62.3116 41.6219 61.9075 41.7835C61.5842 41.8643 61.2609 42.026 60.9377 42.1068C60.6952 42.1876 60.5336 42.2684 60.2911 42.4301C59.9678 42.5917 59.7254 42.6725 59.4829 42.8342C59.0788 43.0766 58.6747 43.3191 58.2706 43.5615C58.0282 43.7232 57.8665 43.804 57.6241 43.9656C57.4624 44.0465 57.3816 44.1273 57.22 44.2081C56.4926 44.693 55.8461 45.2587 55.2803 45.9053C52.2092 48.9764 50.2695 53.2599 50.2695 58.0282C50.2695 59.2405 50.4312 60.3719 50.6736 61.5842C50.7544 61.9075 50.8353 62.15 50.9161 62.4732C51.1585 63.2814 51.401 64.0896 51.7243 64.8978V64.9786C52.0476 65.6252 52.3708 66.3526 52.7749 66.9183H11.3147ZM76.5358 66.9183C74.192 69.2621 71.0401 70.636 67.484 70.636C64.0896 70.636 60.9377 69.2621 58.6747 67.0799C58.3515 66.7567 58.0282 66.3526 57.7049 66.0293C57.4624 65.7868 57.22 65.4636 56.9775 65.2211C56.6543 64.817 56.4118 64.3321 56.1693 63.8472C56.0077 63.5239 55.8461 63.2814 55.6844 62.9582C55.5228 62.5541 55.3611 62.0691 55.2803 61.5842C55.1995 61.261 55.0379 60.8569 54.9571 60.5336C54.7954 59.7254 54.7146 58.8364 54.7146 57.9474C54.7146 54.3913 56.1693 51.2394 58.4323 48.8956C60.6952 46.5519 63.928 45.1779 67.484 45.1779C71.0401 45.1779 74.192 46.6327 76.5358 48.8956C78.8795 51.2394 80.2535 54.3913 80.2535 57.9474C80.2535 61.4226 78.7987 64.5745 76.5358 66.9183Z" fill="#1C3947"/>
<path d="M69.0196 49.2188C68.858 49.0571 68.6155 48.8955 68.2922 48.7339C68.0498 48.6531 67.8073 48.5722 67.5649 48.5722C67.484 48.5722 67.484 48.5722 67.484 48.5722C67.4032 48.5722 67.4032 48.5722 67.4032 48.5722C67.1608 48.5722 66.9183 48.6531 66.6758 48.7339C66.4334 48.8147 66.1909 48.9763 65.9485 49.2188L60.9377 54.2296C60.1295 55.0377 60.1295 56.4117 60.9377 57.3007C61.7459 58.1089 63.1198 58.1089 64.0088 57.3007L65.3019 56.0076V64.8977C65.3019 66.11 66.2717 67.0798 67.484 67.0798C68.6963 67.0798 69.6661 66.11 69.6661 64.8977V56.0076L70.9592 57.3007C71.7675 58.1089 73.1414 58.1089 74.0304 57.3007C74.8386 56.4925 74.8386 55.1186 74.0304 54.2296L69.0196 49.2188Z" fill="#1C3947"/>
</svg>
