<svg width="102" height="97" viewBox="0 0 102 97" fill="none" xmlns="http://www.w3.org/2000/svg">
<path d="M52.2755 2.55091C52.0735 1.92936 51.4943 1.50854 50.8408 1.50854C50.1872 1.50854 49.608 1.92936 49.4061 2.55091L38.4551 36.2544H3.01723C2.36369 36.2544 1.78448 36.6752 1.58253 37.2967C1.38057 37.9183 1.60181 38.5992 2.13053 38.9833L30.8004 59.8132L19.8495 93.5167C19.6475 94.1382 19.8688 94.8191 20.3975 95.2033C20.9262 95.5874 21.6422 95.5874 22.1709 95.2033L50.8408 74.3734L79.5106 95.2033C80.0394 95.5874 80.7553 95.5874 81.284 95.2033C81.8128 94.8191 82.034 94.1382 81.832 93.5167L70.8811 59.8132L99.551 38.9833C100.08 38.5992 100.301 37.9183 100.099 37.2967C99.8971 36.6752 99.3178 36.2544 98.6643 36.2544H63.2264L52.2755 2.55091Z" stroke="#E28B3C" stroke-width="3" stroke-linecap="square" stroke-linejoin="round"/>
</svg>
