<svg width="32" height="32" viewBox="0 0 32 32" fill="none" xmlns="http://www.w3.org/2000/svg">
<path opacity="0.5" fill-rule="evenodd" clip-rule="evenodd" d="M22.4858 19.849H21.0795L20.5521 19.3216C22.31 17.388 23.3646 14.7512 23.3646 11.9387C23.3646 5.62828 18.2491 0.512704 11.9387 0.512704C5.62828 0.512704 0.512704 5.62828 0.512704 11.9387C0.512704 18.2491 5.62828 23.3646 11.9387 23.3646C14.7512 23.3646 17.388 22.31 19.3216 20.5521L19.849 21.0795V22.4858L28.6382 31.2749L31.2749 28.6382L22.4858 19.849ZM11.9387 19.849C7.56992 19.849 4.02835 16.3074 4.02835 11.9387C4.02835 7.56992 7.56992 4.02836 11.9387 4.02836C16.3074 4.02836 19.849 7.56992 19.849 11.9387C19.8578 14.0393 19.0272 16.0564 17.5418 17.5418C16.0564 19.0272 14.0393 19.8578 11.9387 19.849V19.849Z" fill="black" stroke="#707070"/>
</svg>
