<svg width="38" height="41" viewBox="0 0 38 41" fill="none" xmlns="http://www.w3.org/2000/svg">
<path d="M1.91926 27.4877L1.91941 27.4876C2.01481 27.388 2.11279 27.2877 2.21272 27.1854C2.89939 26.4825 3.67855 25.6849 4.35112 24.3616C5.11771 22.8533 5.76614 20.6028 5.76614 17.0315C5.76614 11.1779 9.80021 6.47746 15.2799 5.02603V4.31427C15.2799 2.45835 16.8196 1.00103 18.659 1.00103C20.4984 1.00103 22.0381 2.45835 22.0381 4.31427V5.02603C27.5178 6.47746 31.5519 11.1779 31.5519 17.0315C31.5519 20.6028 32.2003 22.8533 32.9669 24.3616C33.6394 25.6849 34.4186 26.4825 35.1052 27.1854C35.2051 27.2875 35.3029 27.3877 35.3982 27.4872L1.91926 27.4877ZM1.91926 27.4877C1.29024 28.1448 0.995636 28.9538 1.0011 29.7555L1.0011 29.7556M1.91926 27.4877L1.0011 29.7556M1.0011 29.7556C1.01285 31.4575 2.3845 33.0619 4.38909 33.0619M1.0011 29.7556L4.38909 33.0619M4.38909 33.0619H32.9289M4.38909 33.0619H32.9289M32.9289 33.0619C34.933 33.0619 36.3062 31.4579 36.3169 29.7549M32.9289 33.0619L36.3169 29.7549M36.3169 29.7549C36.3222 28.9541 36.028 28.1443 35.3986 27.4876L36.3169 29.7555C36.3169 29.7553 36.3169 29.7551 36.3169 29.7549ZM24.4169 34.3731V33.3721H23.4159H13.9021H12.9011V34.3731C12.9011 37.5068 15.5067 39.9986 18.659 39.9986C21.8113 39.9986 24.4169 37.5068 24.4169 34.3731Z" stroke="#737D6D" stroke-width="2"/>
</svg>
