<svg width="40" height="40" viewBox="0 0 40 40" fill="none" xmlns="http://www.w3.org/2000/svg">
<path d="M33.6189 15.9122L33.7923 16.489L34.3833 16.6054L39 17.5149V22.4851L34.3833 23.3946L33.7923 23.511L33.6189 24.0878C33.3429 25.006 32.9745 25.8927 32.5184 26.7371L32.2324 27.2664L32.5662 27.767L35.1367 31.623L31.623 35.1367L27.7671 32.5662L27.2665 32.2324L26.7371 32.5184C25.8927 32.9745 25.006 33.3429 24.0878 33.6189L23.511 33.7923L23.3946 34.3833L22.4851 39H17.515L16.6054 34.3834L16.489 33.7924L15.9122 33.619C14.994 33.343 14.1072 32.9746 13.2629 32.5185L12.7335 32.2325L12.2329 32.5662L8.37703 35.1368L4.86328 31.623L7.43385 27.7671L7.76759 27.2665L7.48163 26.7371C7.02553 25.8928 6.6571 25.006 6.3811 24.0879L6.2077 23.5111L5.61673 23.3946L1 22.4851V17.515L5.61679 16.6055L6.20779 16.4891L6.38119 15.9122C6.65717 14.9941 7.0256 14.1074 7.48171 13.263L7.76767 12.7337L7.43393 12.233L4.86335 8.37711L8.37711 4.86336L12.2329 7.43385L12.7335 7.7676L13.2629 7.48162C14.1072 7.02547 14.9941 6.65711 15.9122 6.3811L16.489 6.2077L16.6054 5.61673L17.515 1H22.485L23.3945 5.61679L23.5109 6.20778L24.0878 6.38119C25.006 6.6572 25.8928 7.02555 26.737 7.48166L27.2664 7.76771L27.767 7.43393L31.6229 4.86335L35.1367 8.37704L32.5662 12.233L32.2324 12.7336L32.5184 13.2629C32.9745 14.1073 33.3429 14.994 33.6189 15.9122ZM34.1147 32.1588L34.6944 31.5791L34.2396 30.897L31.8159 27.2613C32.2107 26.5948 32.5139 26.0386 32.7738 25.4265C33.0435 24.7914 33.2578 24.1175 33.4932 23.2195L37.8495 22.3613L38.6562 22.2024V21.3802V18.6198V17.7975L37.8495 17.6386L33.4945 16.7808C33.2984 16.0219 33.1162 15.4104 32.8648 14.793C32.605 14.155 32.2802 13.5319 31.815 12.7399L34.2396 9.10306L34.6944 8.42094L34.1147 7.84125L32.1588 5.88539L31.5791 5.30571L30.897 5.76044L27.2614 8.18416C26.5957 7.78994 26.0396 7.48676 25.4276 7.22677C24.7922 6.95689 24.1179 6.74234 23.2196 6.50687L22.3614 2.15047L22.2025 1.34375H21.3802H18.6198H17.7976L17.6386 2.15045L16.7807 6.50533C16.0336 6.69808 15.4273 6.87765 14.8116 7.12747C14.1715 7.38716 13.5426 7.71383 12.7399 8.18504L9.1029 5.76044L8.42078 5.30571L7.8411 5.88539L5.88524 7.84125L5.30554 8.42094L5.7603 9.10306L8.185 12.7401C7.709 13.5514 7.38075 14.1858 7.12105 14.828C6.87255 15.4424 6.69499 16.0445 6.50519 16.7808L2.15047 17.6387L1.34375 17.7976V18.6198V21.3802V22.2025L2.15047 22.3614L6.5054 23.2193C6.69868 23.9681 6.87857 24.5752 7.12858 25.1911C7.38824 25.8308 7.71461 26.4588 8.18501 27.2601L5.76037 30.897L5.30562 31.5791L5.88532 32.1588L7.84118 34.1147L8.42087 34.6944L9.10299 34.2396L12.7387 31.8158C13.4062 32.2111 13.9634 32.5146 14.5759 32.7747C15.211 33.0443 15.8844 33.2583 16.7804 33.4932L17.6386 37.8495L17.7975 38.6562H18.6198H21.3802H22.2025L22.3614 37.8495L23.2193 33.4946C23.9761 33.2991 24.5866 33.1174 25.2037 32.8663C25.842 32.6065 26.4661 32.2814 27.2601 31.815L30.897 34.2396L31.5791 34.6944L32.1588 34.1147L34.1147 32.1588Z" stroke="#737D6D" stroke-width="2"/>
<path d="M12.7969 20C12.7969 16.0291 16.0291 12.7969 20 12.7969C23.9709 12.7969 27.2031 16.0291 27.2031 20C27.2031 23.9709 23.9709 27.2031 20 27.2031C16.0291 27.2031 12.7969 23.9709 12.7969 20ZM13.1407 20C13.1407 23.7831 16.2169 26.8594 20 26.8594C23.7831 26.8594 26.8594 23.7831 26.8594 20C26.8594 16.2169 23.7831 13.1407 20 13.1407C16.2169 13.1407 13.1407 16.2169 13.1407 20Z" stroke="#737D6D" stroke-width="2"/>
</svg>
