<svg width="43" height="43" viewBox="0 0 43 43" fill="none" xmlns="http://www.w3.org/2000/svg">
<path d="M43 21.5C43 33.3741 33.3741 43 21.5 43C9.62584 43 0 33.3741 0 21.5C0 9.62584 9.62584 0 21.5 0C33.3741 0 43 9.62584 43 21.5ZM19.0131 32.8841L34.9647 16.9325C35.5064 16.3908 35.5064 15.5125 34.9647 14.9708L33.0031 13.0092C32.4614 12.4675 31.5831 12.4675 31.0414 13.0092L18.0323 26.0183L11.9586 19.9446C11.4169 19.403 10.5386 19.403 9.99689 19.9446L8.03528 21.9062C7.49362 22.4479 7.49362 23.3262 8.03528 23.8679L17.0514 32.884C17.5932 33.4257 18.4714 33.4257 19.0131 32.8841V32.8841Z" fill="#1C3947"/>
</svg>
