<svg width="40" height="31" viewBox="0 0 40 31" fill="none" xmlns="http://www.w3.org/2000/svg">
<path d="M24.1083 1.90654C24.1083 1.33353 24.8109 1.02812 25.2303 1.44296C25.2307 1.44333 25.2311 1.44371 25.2315 1.44409L38.5578 14.7704C38.5584 14.771 38.5591 14.7717 38.5597 14.7723C38.8134 15.0309 38.8134 15.4502 38.5597 15.7088C38.5591 15.7094 38.5584 15.71 38.5578 15.7107L25.2285 29.0399C24.8155 29.4529 24.1083 29.1533 24.1083 28.5745V20.9551V19.7051H22.8583H12.0641C11.6988 19.7051 11.4092 19.4155 11.4092 19.0503V11.4308C11.4092 11.0656 11.6988 10.776 12.0641 10.776H22.8583H24.1083V9.52597V1.90654ZM7.61943 26.6498H13.9889V29.2294H7.61943C4.10322 29.2294 1.25 26.3762 1.25 22.86V7.62111C1.25 4.10491 4.10322 1.25169 7.61943 1.25169H13.9889V3.8313H7.61943C5.52424 3.8313 3.82962 5.52593 3.82962 7.62111V22.86C3.82962 24.9552 5.52424 26.6498 7.61943 26.6498Z" stroke="#737D6D" stroke-width="2.5"/>
</svg>
