<svg width="61" height="57" viewBox="0 0 61 57" fill="none" xmlns="http://www.w3.org/2000/svg">
<path d="M58.6853 19.6071H38.656L32.5696 1.4433C32.2701 0.558258 31.4395 0 30.5 0C29.5605 0 28.7299 0.558258 28.4304 1.4433L22.344 19.6071H2.17857C0.980357 19.6071 0 20.5875 0 21.7857C0 21.9083 0.013616 22.0444 0.0408481 22.1533C0.0680804 22.6299 0.285938 23.1609 0.953125 23.692L17.415 35.2929L11.0971 53.6609C10.7839 54.546 11.0971 55.54 11.846 56.1118C12.2408 56.3978 12.6085 56.6429 13.0714 56.6429C13.5208 56.6429 14.0518 56.4114 14.433 56.1527L30.5 44.7016L46.567 56.1527C46.9482 56.425 47.4792 56.6429 47.9286 56.6429C48.3915 56.6429 48.7591 56.4114 49.1404 56.1118C49.9029 55.54 50.2025 54.5596 49.8893 53.6609L43.5714 35.2929L59.8971 23.583L60.292 23.2426C60.646 22.8614 61 22.344 61 21.7857C61 20.5875 59.8835 19.6071 58.6853 19.6071Z" fill="#FFB04E"/>
</svg>
