<svg width="38" height="38" viewBox="0 0 38 38" fill="none" xmlns="http://www.w3.org/2000/svg">
<path d="M35.0725 23.7274C34.5497 23.7274 34.1261 24.151 34.1261 24.6738V33.0767C34.1242 34.6442 32.8544 35.9144 31.2869 35.9159H4.73198C3.16451 35.9144 1.89464 34.6442 1.89279 33.0767V8.41459C1.89464 6.8475 3.16451 5.57725 4.73198 5.57541H13.1349C13.6577 5.57541 14.0813 5.15175 14.0813 4.62902C14.0813 4.10664 13.6577 3.68262 13.1349 3.68262H4.73198C2.11977 3.68557 0.00295279 5.8024 0 8.41459V33.0771C0.00295749 35.6893 2.11977 37.8061 4.73198 37.8091H31.2869C33.8991 37.8061 36.0159 35.6893 36.0189 33.0771V24.6738C36.0189 24.151 35.5952 23.7274 35.0725 23.7274Z" fill="#1C3947"/>
<path d="M35.644 1.24741C33.9808 -0.415804 31.2843 -0.415804 29.6211 1.24741L12.7368 18.1317C12.6211 18.2474 12.5376 18.3908 12.4939 18.5483L10.2736 26.5642C10.1823 26.8929 10.2751 27.2448 10.5161 27.4862C10.7575 27.7272 11.1095 27.82 11.4381 27.7291L19.454 25.5084C19.6115 25.4648 19.755 25.3812 19.8706 25.2655L36.7545 8.38086C38.4152 6.71654 38.4152 4.02227 36.7545 2.35794L35.644 1.24741ZM14.7989 18.7468L28.6174 4.92794L33.074 9.3845L19.2551 23.2034L14.7989 18.7468ZM13.9087 20.5331L17.4691 24.094L12.5442 25.4585L13.9087 20.5331ZM35.4163 7.04257L34.4126 8.04627L29.9556 3.58933L30.9597 2.58563C31.8836 1.66179 33.3815 1.66179 34.3054 2.58563L35.4163 3.69617C36.3387 4.62113 36.3387 6.11798 35.4163 7.04257Z" fill="#1C3947"/>
</svg>
