<svg width="32" height="31" viewBox="0 0 32 31" fill="none" xmlns="http://www.w3.org/2000/svg">
<path d="M18.2829 28.924L16.707 30.4999C16.0397 31.1672 14.9607 31.1672 14.3005 30.4999L0.500464 16.707C-0.166821 16.0397 -0.166821 14.9607 0.500464 14.3005L14.3005 0.500464C14.9678 -0.166821 16.0468 -0.166821 16.707 0.500464L18.2829 2.07639C18.9573 2.75078 18.9431 3.85109 18.2545 4.51128L9.70049 12.6607H30.1024C31.0465 12.6607 31.8061 13.4203 31.8061 14.3644V16.636C31.8061 17.5801 31.0465 18.3397 30.1024 18.3397H9.70049L18.2545 26.4891C18.9502 27.1493 18.9644 28.2496 18.2829 28.924Z" fill="#F6F6F6"/>
</svg>
