<svg width="24" height="23" viewBox="0 0 24 23" fill="none" xmlns="http://www.w3.org/2000/svg">
<path d="M2.9061 10.0678C1.59031 10.0678 0.518949 11.1392 0.518949 12.455V20.0939C0.518949 21.4097 1.59031 22.4811 2.9061 22.4811H5.7707C6.30831 22.4811 6.8029 22.2997 7.203 21.9979V10.0678H2.9061Z" stroke="#707070"/>
<path d="M23.4357 13.6484C23.4357 13.0745 23.2085 12.5398 22.8141 12.1454C23.26 11.6575 23.4873 11.0033 23.4252 10.3226C23.3135 9.1089 22.2201 8.15786 20.9349 8.15786H15.0367C15.3289 7.27077 15.7968 5.64466 15.7968 4.3384C15.7968 2.2673 14.037 0.518949 12.9322 0.518949C11.9401 0.518949 11.2315 1.07755 11.201 1.10046C11.0883 1.19119 11.0225 1.32869 11.0225 1.4738V4.71174L8.27243 10.6692L8.15787 10.7274V20.9617C8.93512 21.3284 9.9186 21.526 10.545 21.526H19.3097C20.3496 21.526 21.2596 20.8251 21.4735 19.8579C21.5833 19.3604 21.5193 18.8591 21.3006 18.4236C22.0063 18.0684 22.4809 17.3418 22.4809 16.513C22.4809 16.1749 22.4035 15.8512 22.2565 15.5581C22.9621 15.2029 23.4357 14.4762 23.4357 13.6484Z" stroke="#707070"/>
</svg>
