<svg width="41" height="32" viewBox="0 0 41 32" fill="none" xmlns="http://www.w3.org/2000/svg">
<path d="M0 28.4722C0 30.3585 1.53038 31.8889 3.41667 31.8889H37.5833C39.4696 31.8889 41 30.3585 41 28.4722V15.9444H0V28.4722ZM13.6667 23.6319C13.6667 23.1622 14.051 22.7778 14.5208 22.7778H24.2014C24.6712 22.7778 25.0556 23.1622 25.0556 23.6319V26.4792C25.0556 26.949 24.6712 27.3333 24.2014 27.3333H14.5208C14.051 27.3333 13.6667 26.949 13.6667 26.4792V23.6319ZM4.55556 23.6319C4.55556 23.1622 4.93993 22.7778 5.40972 22.7778H10.5347C11.0045 22.7778 11.3889 23.1622 11.3889 23.6319V26.4792C11.3889 26.949 11.0045 27.3333 10.5347 27.3333H5.40972C4.93993 27.3333 4.55556 26.949 4.55556 26.4792V23.6319ZM41 3.41667V6.83333H0V3.41667C0 1.53038 1.53038 0 3.41667 0H37.5833C39.4696 0 41 1.53038 41 3.41667Z" fill="#1C3947"/>
</svg>
