<svg width="33" height="37" viewBox="0 0 33 37" fill="none" xmlns="http://www.w3.org/2000/svg">
<path d="M10.2312 23.2908H7.15387C6.64612 23.2908 6.23068 22.8845 6.23068 22.388V19.3786C6.23068 18.882 6.64612 18.4757 7.15387 18.4757H10.2312C10.7389 18.4757 11.1544 18.882 11.1544 19.3786V22.388C11.1544 22.8845 10.7389 23.2908 10.2312 23.2908ZM18.5399 22.388V19.3786C18.5399 18.882 18.1244 18.4757 17.6167 18.4757H14.5394C14.0316 18.4757 13.6162 18.882 13.6162 19.3786V22.388C13.6162 22.8845 14.0316 23.2908 14.5394 23.2908H17.6167C18.1244 23.2908 18.5399 22.8845 18.5399 22.388ZM25.9254 22.388V19.3786C25.9254 18.882 25.51 18.4757 25.0022 18.4757H21.9249C21.4172 18.4757 21.0017 18.882 21.0017 19.3786V22.388C21.0017 22.8845 21.4172 23.2908 21.9249 23.2908H25.0022C25.51 23.2908 25.9254 22.8845 25.9254 22.388ZM18.5399 29.6106V26.6012C18.5399 26.1046 18.1244 25.6984 17.6167 25.6984H14.5394C14.0316 25.6984 13.6162 26.1046 13.6162 26.6012V29.6106C13.6162 30.1071 14.0316 30.5134 14.5394 30.5134H17.6167C18.1244 30.5134 18.5399 30.1071 18.5399 29.6106ZM11.1544 29.6106V26.6012C11.1544 26.1046 10.7389 25.6984 10.2312 25.6984H7.15387C6.64612 25.6984 6.23068 26.1046 6.23068 26.6012V29.6106C6.23068 30.1071 6.64612 30.5134 7.15387 30.5134H10.2312C10.7389 30.5134 11.1544 30.1071 11.1544 29.6106ZM25.9254 26.6012C25.9254 26.1046 25.51 25.6984 25.0022 25.6984H21.9249C21.4172 25.6984 21.0017 26.1046 21.0017 26.6012V29.6106C21.0017 30.1071 21.4172 30.5134 21.9249 30.5134L25.9254 26.6012Z" fill="#1C3947"/>
<path d="M1.8297 15.1421H30.6616C31.1104 15.1421 31.4776 15.511 31.4776 15.9618V32.7076C31.4776 34.5177 30.0156 35.9863 28.2136 35.9863H4.27769C2.4757 35.9863 1.0137 34.5177 1.0137 32.7076V16.3771V15.9618C1.0137 15.511 1.3809 15.1421 1.8297 15.1421ZM31.4776 11.123V8.66396C31.4776 6.85385 30.0156 5.38527 28.2136 5.38527H24.9497V1.83337C24.9497 1.38255 24.5825 1.0137 24.1337 1.0137H21.4137C20.9649 1.0137 20.5977 1.38255 20.5977 1.83337V5.38527H11.8937V1.83337C11.8937 1.38255 11.5265 1.0137 11.0777 1.0137H8.35768C7.90888 1.0137 7.54169 1.38255 7.54169 1.83337V5.38527H4.27769C2.4757 5.38527 1.0137 6.85385 1.0137 8.66396V11.123C1.0137 11.5738 1.3809 11.9426 1.8297 11.9426H30.6616C31.1104 11.9426 31.4776 11.5738 31.4776 11.123Z" stroke="#1C3947" stroke-width="2"/>
</svg>
