<svg width="35" height="36" viewBox="0 0 35 36" fill="none" xmlns="http://www.w3.org/2000/svg">
<path d="M31.8847 3.98528V8.31509C31.8847 10.2721 30.297 11.8492 28.3403 11.8492H26.1044C24.1475 11.8492 22.5389 10.2721 22.5389 8.31509V3.96973H12.4611V8.31509C12.4611 10.2721 10.8525 11.8492 8.89595 11.8492H6.65963C4.70296 11.8492 3.11541 10.2721 3.11541 8.31509V3.98528C1.40527 4.03682 0 5.45191 0 7.19125V32.566C0 34.338 1.43628 35.7934 3.20831 35.7934H31.7917C33.5611 35.7934 35 34.335 35 32.566V7.19125C35 5.45191 33.5948 4.03682 31.8847 3.98528ZM30.8462 30.9859C30.8462 31.7517 30.2252 32.3729 29.4592 32.3729H5.47976C4.71367 32.3729 4.09275 31.7517 4.09275 30.9859V17.8789C4.09275 17.1128 4.71359 16.4915 5.47976 16.4915H29.4591C30.2252 16.4915 30.8461 17.1128 30.8461 17.8789L30.8462 30.9859Z" fill="#FFFCFC"/>
<path d="M6.65161 9.52816H8.86321C9.53451 9.52816 10.0788 8.98468 10.0788 8.31339V1.21521C10.0788 0.543848 9.53451 0 8.86321 0H6.65161C5.98025 0 5.43604 0.543848 5.43604 1.21521V8.31339C5.43604 8.98467 5.98025 9.52816 6.65161 9.52816Z" fill="#FFFCFC"/>
<path d="M26.0759 9.52816H28.2874C28.9583 9.52816 29.5026 8.98468 29.5026 8.31339V1.21521C29.5027 0.543848 28.9584 0 28.2874 0H26.0759C25.4046 0 24.8604 0.543848 24.8604 1.21521V8.31339C24.8604 8.98467 25.4046 9.52816 26.0759 9.52816Z" fill="#FFFCFC"/>
</svg>
