<svg width="25" height="29" viewBox="0 0 25 29" fill="none" xmlns="http://www.w3.org/2000/svg">
<path opacity="0.39" d="M0 25.8929C0 27.3717 1.19978 28.5714 2.67857 28.5714H22.3214C23.8002 28.5714 25 27.3717 25 25.8929V10.7143H0V25.8929ZM17.8571 14.9554C17.8571 14.5871 18.1585 14.2857 18.5268 14.2857H20.7589C21.1272 14.2857 21.4286 14.5871 21.4286 14.9554V17.1875C21.4286 17.5558 21.1272 17.8571 20.7589 17.8571H18.5268C18.1585 17.8571 17.8571 17.5558 17.8571 17.1875V14.9554ZM17.8571 22.0982C17.8571 21.7299 18.1585 21.4286 18.5268 21.4286H20.7589C21.1272 21.4286 21.4286 21.7299 21.4286 22.0982V24.3304C21.4286 24.6987 21.1272 25 20.7589 25H18.5268C18.1585 25 17.8571 24.6987 17.8571 24.3304V22.0982ZM10.7143 14.9554C10.7143 14.5871 11.0156 14.2857 11.3839 14.2857H13.6161C13.9844 14.2857 14.2857 14.5871 14.2857 14.9554V17.1875C14.2857 17.5558 13.9844 17.8571 13.6161 17.8571H11.3839C11.0156 17.8571 10.7143 17.5558 10.7143 17.1875V14.9554ZM10.7143 22.0982C10.7143 21.7299 11.0156 21.4286 11.3839 21.4286H13.6161C13.9844 21.4286 14.2857 21.7299 14.2857 22.0982V24.3304C14.2857 24.6987 13.9844 25 13.6161 25H11.3839C11.0156 25 10.7143 24.6987 10.7143 24.3304V22.0982ZM3.57143 14.9554C3.57143 14.5871 3.87277 14.2857 4.24107 14.2857H6.47321C6.84152 14.2857 7.14286 14.5871 7.14286 14.9554V17.1875C7.14286 17.5558 6.84152 17.8571 6.47321 17.8571H4.24107C3.87277 17.8571 3.57143 17.5558 3.57143 17.1875V14.9554ZM3.57143 22.0982C3.57143 21.7299 3.87277 21.4286 4.24107 21.4286H6.47321C6.84152 21.4286 7.14286 21.7299 7.14286 22.0982V24.3304C7.14286 24.6987 6.84152 25 6.47321 25H4.24107C3.87277 25 3.57143 24.6987 3.57143 24.3304V22.0982ZM22.3214 3.57143H19.6429V0.892857C19.6429 0.401786 19.2411 0 18.75 0H16.9643C16.4732 0 16.0714 0.401786 16.0714 0.892857V3.57143H8.92857V0.892857C8.92857 0.401786 8.52679 0 8.03571 0H6.25C5.75893 0 5.35714 0.401786 5.35714 0.892857V3.57143H2.67857C1.19978 3.57143 0 4.77121 0 6.25V8.92857H25V6.25C25 4.77121 23.8002 3.57143 22.3214 3.57143Z" fill="black"/>
</svg>
