<svg width="14" height="19" viewBox="0 0 14 19" fill="none" xmlns="http://www.w3.org/2000/svg">
<path d="M6.88103 0C3.08681 0 0 3.08681 0 6.881C0 11.5897 6.15785 18.5024 6.42002 18.7943C6.66627 19.0686 7.09623 19.0681 7.34204 18.7943C7.60422 18.5024 13.7621 11.5897 13.7621 6.881C13.762 3.08681 10.6752 0 6.88103 0ZM6.88103 10.343C4.97206 10.343 3.41903 8.78997 3.41903 6.881C3.41903 4.97203 4.97211 3.41901 6.88103 3.41901C8.78995 3.41901 10.343 4.97207 10.343 6.88104C10.343 8.79 8.78995 10.343 6.88103 10.343Z" fill="#1C3947"/>
</svg>
