<svg width="38" height="42" viewBox="0 0 38 42" fill="none" xmlns="http://www.w3.org/2000/svg">
<path d="M27.8952 15.7381L9.96509 5.39844" stroke="#737D6D" stroke-width="2" stroke-linecap="round" stroke-linejoin="round"/>
<path d="M36.8602 28.8872V12.9493C36.8588 11.5273 36.0995 10.2138 34.868 9.50276L20.9224 1.53382C19.6896 0.822061 18.1707 0.822061 16.9379 1.53382L2.99224 9.50276C1.7607 10.2138 1.00146 11.5273 1 12.9493V28.8872C1.00146 30.3093 1.7607 31.6227 2.99224 32.3338L16.9379 40.3027C18.1707 41.0145 19.6896 41.0145 20.9224 40.3027L34.868 32.3338C36.0995 31.6228 36.8588 30.3093 36.8602 28.8872Z" stroke="#737D6D" stroke-width="2" stroke-linecap="round" stroke-linejoin="round"/>
<path d="M1.53784 10.8779L18.9301 20.9387L36.3223 10.8779" stroke="#737D6D" stroke-width="2" stroke-linecap="round" stroke-linejoin="round"/>
<path d="M18.9302 40.9997V20.918" stroke="#737D6D" stroke-width="2" stroke-linecap="round" stroke-linejoin="round"/>
</svg>
