<svg width="40" height="40" viewBox="0 0 40 40" fill="none" xmlns="http://www.w3.org/2000/svg">
<path d="M38.5712 8.94081V6.89795L23.0498 8.94081H38.5712Z" fill="#1C3947"/>
<rect x="1.42871" y="36.7979" width="14.2857" height="2.85714" fill="#1C3947"/>
<path d="M37.1433 3.43359L19.4219 7.97645L37.1433 5.64788V3.43359Z" fill="#1C3947"/>
<path d="M8.57129 10.3691V22.8906L13.6499 17.6334C14.6521 16.633 16.1483 16.3142 17.4713 16.8191C18.4617 13.6436 21.5143 11.573 24.831 11.8269C28.1478 12.0809 30.8495 14.592 31.345 17.8813C31.8405 21.1707 29.9984 24.3663 26.9036 25.586C23.8089 26.8057 20.2819 25.7263 18.3999 22.9834L13.8641 27.512H39.9998V10.3691H8.57129ZM14.9999 12.512H13.4806C13.2188 13.5173 12.4337 14.3024 11.4284 14.5641V16.0834H9.99986V13.9406C9.99986 13.5461 10.3197 13.2263 10.7141 13.2263C11.5031 13.2263 12.1427 12.5867 12.1427 11.7977C12.1427 11.4032 12.4625 11.0834 12.857 11.0834H14.9999V12.512ZM38.5713 23.2263C38.5713 23.6208 38.2515 23.9406 37.857 23.9406C37.068 23.9406 36.4284 24.5802 36.4284 25.3691C36.4284 25.7636 36.1086 26.0834 35.7141 26.0834H33.5713V24.6549H35.0906C35.3523 23.6495 36.1374 22.8645 37.1427 22.6027V21.0834H38.5713V23.2263ZM38.5713 16.7977H37.1427V15.2784C36.1374 15.0167 35.3523 14.2316 35.0906 13.2263H33.5713V11.7977H35.7141C36.1086 11.7977 36.4284 12.1175 36.4284 12.512C36.4284 13.301 37.068 13.9406 37.857 13.9406C38.2515 13.9406 38.5713 14.2604 38.5713 14.6549V16.7977Z" fill="#1C3947"/>
<path d="M24.2857 24.6553C27.2731 24.6591 29.7593 22.3611 29.9902 19.3826C30.221 16.4041 28.1186 13.7504 25.1663 13.2938C22.2139 12.8373 19.4082 14.7319 18.7285 17.641C19.2323 18.1535 19.5708 18.8054 19.6999 19.5124C19.7285 19.741 19.7499 19.9267 19.7571 20.1196C19.7451 20.696 19.6035 21.2624 19.3428 21.7767C20.3486 23.5595 22.2387 24.6603 24.2857 24.6553ZM24.2857 19.6553C23.2432 19.6573 22.3513 18.9071 22.1747 17.8797C21.998 16.8523 22.5881 15.8473 23.5714 15.501L23.5714 14.6553H24.9999V15.501C25.8531 15.8026 26.4248 16.6076 26.4285 17.5124H24.9999C24.9999 17.1179 24.6801 16.7981 24.2857 16.7981C23.8912 16.7981 23.5714 17.1179 23.5714 17.5124C23.5714 17.9069 23.8912 18.2267 24.2857 18.2267C25.3281 18.2247 26.22 18.9749 26.3967 20.0023C26.5733 21.0297 25.9832 22.0347 24.9999 22.381V23.2267H23.5714V22.381C22.7183 22.0794 22.1466 21.2744 22.1428 20.3696H23.5714C23.5714 20.7641 23.8912 21.0839 24.2857 21.0839C24.6801 21.0839 24.9999 20.7641 24.9999 20.3696C24.9999 19.9751 24.6801 19.6553 24.2857 19.6553Z" fill="#1C3947"/>
<path d="M15 35.3693V33.5764C15.0042 32.6267 14.6257 31.7152 13.95 31.0478L11.6357 28.7335L11.6429 28.7264C11.5747 28.6623 11.5211 28.5844 11.4857 28.4978C11.3739 28.2318 11.433 27.9247 11.6357 27.7193L17.7 21.655C18.0978 21.2507 18.3231 20.7078 18.3286 20.1407C18.3214 20.0264 18.3071 19.8835 18.2929 19.7407C18.1394 18.9638 17.571 18.3343 16.8137 18.1028C16.0563 17.8713 15.2331 18.0752 14.6714 18.6335L8.37144 25.1478C8.16963 25.361 7.85797 25.429 7.58572 25.3193C7.31862 25.2062 7.14448 24.945 7.14286 24.655V9.65497C7.14286 9.26049 7.46266 8.94069 7.85715 8.94069H9.59286L12.9 3.21212C13.0864 2.88833 13.1849 2.52144 13.1857 2.14783C13.1846 1.48241 12.8756 0.854952 12.3489 0.448359C11.8221 0.0417658 11.1369 -0.0981992 10.4929 0.0692622C9.94357 0.216 9.47559 0.575981 9.19287 1.06926L0.292867 16.4907C0.100065 16.8147 -0.00115333 17.185 9.9144e-06 17.5621V26.3978C0.00106206 26.598 0.0274626 26.7972 0.0785815 26.9907L2.47144 35.3693H15Z" fill="#1C3947"/>
</svg>
