<svg width="39" height="40" viewBox="0 0 39 40" fill="none" xmlns="http://www.w3.org/2000/svg">
<path d="M37.0365 11.6862L33.7659 9.45931V8.61982C33.7659 6.58167 32.1077 4.92348 30.0696 4.92348H27.1041L21.5707 1.15618C20.3003 0.291184 18.6586 0.291184 17.3881 1.15618L11.8596 4.92028L11.8618 4.92356H8.88922C6.85107 4.92356 5.19288 6.58175 5.19288 8.61989V9.45931L1.92227 11.6861C1.03633 12.2893 0.507433 13.2894 0.507433 14.3612V37.067C0.507433 37.8577 0.826247 39.493 2.93346 39.493H36.0253C37.3631 39.493 38.4514 38.4047 38.4514 37.067V14.3612C38.4515 13.2894 37.9224 12.2894 37.0365 11.6862ZM18.0308 2.10006C18.9109 1.50111 20.0481 1.50111 20.928 2.10006L25.075 4.92356H13.884L18.0308 2.10006ZM6.33496 8.61997C6.33496 7.21146 7.48078 6.06564 8.88922 6.06564H30.0695C31.478 6.06564 32.6238 7.21146 32.6238 8.61989V15.5611H33.7658V10.841C33.7658 10.841 36.5868 12.7752 36.6723 12.858L22.5194 21.4239C20.6443 22.5561 18.3146 22.5562 16.4424 21.4257L6.33496 15.238V8.61997ZM5.19296 10.8409V14.5386L2.35012 12.7984C2.41766 12.7383 5.19296 10.8409 5.19296 10.8409ZM2.86538 38.3477L4.89043 36.0224L4.02917 35.2723L1.85762 37.7657C1.72642 37.5644 1.64936 37.3247 1.64936 37.0669V14.3612C1.64936 14.1556 1.68013 13.9543 1.73739 13.7624L15.4509 22.1577L4.02917 35.2723L4.89043 36.0224L16.4648 22.7326C17.4197 23.1877 18.4493 23.4156 19.4793 23.4156C20.5222 23.4156 21.5651 23.1814 22.5303 22.7147L36.111 38.3468C36.0825 38.3487 2.88808 38.3489 2.86538 38.3477ZM37.3094 37.067C37.3094 37.3196 37.235 37.5547 37.1085 37.7536L23.5431 22.1392L37.245 13.8463C37.2872 14.0127 37.3094 14.1853 37.3094 14.3612V37.067H37.3094Z" fill="#737D6D"/>
<path d="M4.89043 36.0224L2.86538 38.3477C2.88808 38.3489 36.0825 38.3487 36.111 38.3468L22.5303 22.7147C21.5651 23.1814 20.5222 23.4156 19.4793 23.4156C18.4493 23.4156 17.4197 23.1877 16.4648 22.7326L4.89043 36.0224ZM4.89043 36.0224L4.02917 35.2723M4.02917 35.2723L1.85762 37.7657C1.72642 37.5644 1.64936 37.3247 1.64936 37.0669V14.3612C1.64936 14.1556 1.68013 13.9543 1.73739 13.7624L15.4509 22.1577L4.02917 35.2723ZM37.0365 11.6862L33.7659 9.45931V8.61982C33.7659 6.58167 32.1077 4.92348 30.0696 4.92348H27.1041L21.5707 1.15618C20.3003 0.291184 18.6586 0.291184 17.3881 1.15618L11.8596 4.92028L11.8618 4.92356H8.88922C6.85107 4.92356 5.19288 6.58175 5.19288 8.61989V9.45931L1.92227 11.6861C1.03633 12.2893 0.507433 13.2894 0.507433 14.3612V37.067C0.507433 37.8577 0.826247 39.493 2.93346 39.493H36.0253C37.3631 39.493 38.4514 38.4047 38.4514 37.067V14.3612C38.4515 13.2894 37.9224 12.2894 37.0365 11.6862ZM18.0308 2.10006C18.9109 1.50111 20.0481 1.50111 20.928 2.10006L25.075 4.92356H13.884L18.0308 2.10006ZM6.33496 8.61997C6.33496 7.21146 7.48078 6.06564 8.88922 6.06564H30.0695C31.478 6.06564 32.6238 7.21146 32.6238 8.61989V15.5611H33.7658V10.841C33.7658 10.841 36.5868 12.7752 36.6723 12.858L22.5194 21.4239C20.6443 22.5561 18.3146 22.5562 16.4424 21.4257L6.33496 15.238V8.61997ZM5.19296 10.8409V14.5386L2.35012 12.7984C2.41766 12.7383 5.19296 10.8409 5.19296 10.8409ZM37.3094 37.067C37.3094 37.3196 37.235 37.5547 37.1085 37.7536L23.5431 22.1392L37.245 13.8463C37.2872 14.0127 37.3094 14.1853 37.3094 14.3612V37.067H37.3094Z" stroke="#737D6D"/>
</svg>
