<svg width="17" height="20" viewBox="0 0 17 20" fill="none" xmlns="http://www.w3.org/2000/svg">
<g opacity="0.5">
<path d="M3.20399 6.37604C3.30921 6.27253 3.41944 6.17475 3.53468 6.08271C3.67225 5.9654 3.69142 5.75971 3.57752 5.61921C3.46388 5.4787 3.25868 5.45441 3.11537 5.56476C2.98182 5.67121 2.85413 5.78473 2.73267 5.90473C2.646 5.98835 2.61121 6.11237 2.64173 6.2287C2.67225 6.34528 2.76331 6.43647 2.87977 6.46698C2.99635 6.4975 3.12025 6.46271 3.20399 6.37604Z" fill="black"/>
<path d="M16.571 5.30253C15.7919 4.61308 14.7514 4.29655 13.7204 4.43583C14.2194 4.10831 14.8358 4.0131 15.4105 4.17448C15.585 4.23368 15.7743 4.1403 15.8334 3.9661C15.8926 3.79167 15.7993 3.60246 15.6249 3.54325C14.7668 3.29911 13.8437 3.48014 13.141 4.02982C13.0734 3.39848 12.7584 2.81949 12.2649 2.41996C12.1757 2.33463 12.0468 2.30558 11.9296 2.3444C11.8125 2.38334 11.7265 2.48368 11.7058 2.60526C11.6853 2.72709 11.7337 2.85001 11.8316 2.92533C12.227 3.23698 12.4657 3.70634 12.4853 4.20964C12.3013 3.92179 12.0476 3.6851 11.7479 3.52128C10.612 2.8986 9.13295 3.47551 9.0707 3.5009C8.90444 3.57206 8.82521 3.76286 8.89223 3.93083C8.95937 4.0988 9.14809 4.18278 9.31765 4.11991C9.32998 4.11479 10.5636 3.63249 11.4275 4.10588C11.6543 4.23442 11.841 4.4235 11.9667 4.65178C10.4716 4.17216 9.08852 5.19487 8.49732 5.91411C8.42163 6.00615 8.40076 6.13164 8.44263 6.24308C8.4845 6.35466 8.58265 6.43535 8.70008 6.45488C8.81751 6.47441 8.93653 6.42985 9.01221 6.33781C9.07532 6.26115 10.5123 4.55546 12.1428 5.45378C11.8764 6.07194 11.4619 6.48027 10.7736 7.15678C10.3853 7.53886 9.90175 8.0142 9.32802 8.64824C8.31862 9.76848 7.60268 11.4279 7.16139 12.6947H6.69459C6.75197 11.7201 6.83192 8.86149 5.97841 6.87027C5.64137 6.08352 5.33766 5.47622 5.09376 4.98818C4.66139 4.1249 4.40431 3.60488 4.34913 2.9335C6.17396 2.61355 6.99037 4.69021 7.02565 4.78311C7.09279 4.95156 7.28224 5.03555 7.45192 4.97207C7.62172 4.9086 7.70985 4.7211 7.65004 4.54983C7.32264 3.67715 6.34364 2.25955 4.77003 2.23281C4.96388 2.05715 5.20252 1.93875 5.4596 1.89089C6.42469 1.72427 7.44435 2.57864 7.45472 2.58682C7.59486 2.70083 7.80055 2.68215 7.9181 2.54483C8.03553 2.4075 8.02235 2.20156 7.88807 2.08059C7.83705 2.03689 6.62367 1.01125 5.34803 1.23379C5.01148 1.29201 4.69495 1.43386 4.42762 1.64626C4.60877 1.17678 4.98646 0.810324 5.46095 0.643208C5.63209 0.574971 5.71534 0.380879 5.64698 0.209858C5.57874 0.0389591 5.38465 -0.044415 5.21363 0.0238222C4.61744 0.24245 4.13209 0.688495 3.86402 1.26418C3.37696 0.516741 2.56202 0.047016 1.67103 0.000140993C1.48707 -0.00022522 1.33728 0.148701 1.33692 0.33266C1.33643 0.516864 1.48536 0.666401 1.66932 0.666888C2.26587 0.699847 2.81885 0.989642 3.18506 1.46145C2.25391 0.996601 1.16663 0.960101 0.206425 1.36159C0.0953406 1.40737 0.0173377 1.50942 0.00256694 1.62868C-0.0123256 1.74807 0.0383336 1.86599 0.135013 1.93752C0.231571 2.00918 0.359257 2.02321 0.46912 1.97414C1.07239 1.73598 1.73426 1.68874 2.36536 1.83852C2.17249 1.85427 1.98328 1.89968 1.80445 1.97353C0.687748 2.44131 0.359135 3.86684 0.345707 3.92788C0.306034 4.1072 0.418827 4.28493 0.598027 4.32522C0.622074 4.33059 0.646611 4.33327 0.671025 4.33352C0.826909 4.33364 0.962163 4.22561 0.996466 4.07351C0.998785 4.06215 1.26636 2.91994 2.06299 2.58791C2.41639 2.45937 2.80543 2.46962 3.15174 2.61623C2.35901 3.00527 1.23438 3.91079 1.00635 5.96351C0.98609 6.1465 1.11805 6.31129 1.30103 6.33143C1.48401 6.3517 1.64881 6.21974 1.66907 6.03675C1.89441 4.00953 3.08472 3.31898 3.69398 3.09583C3.77674 3.84547 4.07594 4.44459 4.49635 5.2848C4.73634 5.76515 5.03492 6.36256 5.36476 7.13148C6.16469 8.99818 6.07643 11.8097 6.02467 12.6934H0.721072C0.687625 12.4181 0.670901 12.1409 0.671023 11.8634C0.668582 10.4172 1.09046 9.00208 1.8844 7.79347C1.92432 7.72681 1.97107 7.66016 2.01441 7.59681L2.06775 7.52003C2.15418 7.39368 2.14331 7.22486 2.04163 7.11036C1.93994 6.9961 1.77332 6.9657 1.63782 7.03687C1.58716 7.06129 1.54444 7.09937 1.51428 7.14686L1.46448 7.2201C1.41443 7.29017 1.36438 7.36353 1.32105 7.43336C0.460449 8.7505 0.00280846 10.2902 0.00439585 11.8634C0.0050062 12.2752 0.0362562 12.6863 0.0977796 13.0934V13.1C0.184816 13.6657 0.333498 14.2201 0.541139 14.7534C0.54175 14.7604 0.544069 14.7674 0.547731 14.7735C0.553713 14.7976 0.562624 14.8213 0.574465 14.8434C0.804079 15.4297 1.10401 15.986 1.46777 16.5001C1.46777 16.5034 1.46777 16.5034 1.47095 16.5066C1.48682 16.5335 1.50476 16.5591 1.52442 16.5834C1.52771 16.5834 1.53113 16.5901 1.53113 16.5901C1.97168 17.2072 2.49671 17.7592 3.09107 18.23H3.09436C3.12183 18.2541 3.15088 18.2764 3.18103 18.2967L3.18445 18.3C6.12244 20.5667 10.2195 20.5667 13.1576 18.3L13.1609 18.2967C13.1912 18.2764 13.2201 18.2541 13.2476 18.23H13.251C13.8454 17.7592 14.3704 17.2072 14.8108 16.5901C14.8108 16.5901 14.8142 16.5834 14.8175 16.5834C14.8373 16.5591 14.8551 16.5335 14.871 16.5066C14.8742 16.5034 14.8742 16.5034 14.8742 16.5001C15.2379 15.986 15.538 15.4297 15.7676 14.8434C15.7793 14.8213 15.7884 14.7976 15.7943 14.7735C15.798 14.7674 15.8002 14.7604 15.8008 14.7534C16.0086 14.2201 16.1571 13.6657 16.2443 13.1V13.0934C16.3058 12.6863 16.3371 12.2752 16.3377 11.8634C16.3394 11.0087 16.2042 10.159 15.9375 9.34682C15.8795 9.17177 15.6908 9.07704 15.516 9.13502C15.3411 9.19313 15.2462 9.38197 15.3042 9.55678C15.5484 10.3013 15.672 11.08 15.6708 11.8634C15.6706 12.1406 15.6549 12.4177 15.6243 12.6934H13.3042C13.3273 12.5748 13.3384 12.4542 13.3377 12.3334C13.3377 11.2289 12.4422 10.3335 11.3377 10.3335C10.2332 10.3335 9.33754 11.2289 9.33754 12.3334C9.33681 12.4542 9.34792 12.5748 9.37099 12.6934H7.86562C8.29067 11.5202 8.94191 10.0695 9.82155 9.0934C10.3816 8.47426 10.8573 8.00649 11.2396 7.63039C11.9107 6.97109 12.3891 6.50075 12.7096 5.81642C13.215 6.22548 14.1168 7.26369 13.6763 9.25455C13.6422 9.43167 13.7553 9.60392 13.9315 9.64286C14.1077 9.68192 14.2831 9.57364 14.3268 9.39847C14.7739 7.38321 14.0029 6.16288 13.3786 5.53788C13.7533 5.51127 14.1244 5.62723 14.4171 5.86258C15.0644 6.43448 14.9479 7.60184 14.9466 7.61344C14.9271 7.79593 15.0589 7.95987 15.2414 7.98014C15.2537 7.98185 15.266 7.98258 15.2786 7.98246C15.4483 7.98209 15.5906 7.85441 15.6092 7.68583C15.6162 7.62418 15.7665 6.16849 14.862 5.36515C14.7196 5.23941 14.5587 5.13614 14.3853 5.05887C15.0263 5.12467 15.6328 5.38187 16.1255 5.79728C16.2634 5.90787 16.4636 5.89151 16.5819 5.76017C16.7002 5.62882 16.6953 5.42801 16.5709 5.30253L16.571 5.30253ZM4.44107 18.34C4.09707 18.146 3.77029 17.9231 3.46438 17.6734H12.8776C12.5717 17.9231 12.245 18.146 11.9009 18.34H4.44107ZM2.44436 16.68C2.26346 16.4673 2.09439 16.2447 1.93777 16.0133H14.4042C14.2497 16.246 14.0805 16.4688 13.8976 16.68H2.44436ZM1.37442 15.0201C1.27163 14.8029 1.18032 14.5802 1.1011 14.3533H15.2409C15.1617 14.5802 15.0705 14.8029 14.9676 15.0201H1.37442Z" fill="black"/>
</g>
</svg>
