<svg width="40" height="38" viewBox="0 0 40 38" fill="none" xmlns="http://www.w3.org/2000/svg">
<path d="M36.5331 15.2287H12.208L21.6425 6.20346C22.9951 4.7826 22.9951 2.4865 21.6425 1.06564C20.2898 -0.355214 18.096 -0.355214 16.732 1.06564L1.02302 16.2972C0.341005 16.9565 0 17.8545 0 18.8434V18.8889C0 19.8778 0.341005 20.7758 1.02302 21.435L16.7206 36.6666C18.0847 38.0875 20.2785 38.0875 21.6311 36.6666C22.9838 35.2458 22.9838 32.9497 21.6311 31.5288L12.1966 22.5035H36.5217C38.4427 22.5035 40 20.8781 40 18.8661C40.0113 16.8201 38.4541 15.2287 36.5331 15.2287Z" fill="white"/>
</svg>
