<svg width="63" height="59" viewBox="0 0 63 59" fill="none" xmlns="http://www.w3.org/2000/svg">
<path d="M3.18811 20.6108H23.3467L29.431 2.45309C29.7305 1.56834 30.5608 1.01027 31.5 1.01027C32.4392 1.01027 33.2695 1.56834 33.5689 2.45309L39.6533 20.6108H59.6758C60.8736 20.6108 61.9897 21.5908 61.9897 22.7886C61.9897 23.3467 61.6358 23.864 61.2819 24.2451L60.8872 24.5854L44.567 36.2912L50.8828 54.6531C51.1958 55.5515 50.8964 56.5315 50.1341 57.1032C49.753 57.4027 49.3855 57.6341 48.9227 57.6341C48.4735 57.6341 47.9427 57.4163 47.5616 57.144L31.5 45.6968L15.4384 57.144C15.0573 57.4027 14.5265 57.6341 14.0773 57.6341C13.6145 57.6341 13.247 57.389 12.8523 57.1032C12.1036 56.5315 11.7906 55.5379 12.1036 54.6531L18.4194 36.2912L1.96308 24.6943C1.29611 24.1634 1.07833 23.6326 1.05111 23.1562C1.02388 23.0473 1.01027 22.9112 1.01027 22.7886C1.01027 21.5908 1.9903 20.6108 3.18811 20.6108ZM3.18811 20.6108V20.6108Z" stroke="#FFB04E" stroke-width="2"/>
</svg>
