<svg width="19" height="20" viewBox="0 0 19 20" fill="none" xmlns="http://www.w3.org/2000/svg">
<g opacity="0.5">
<path d="M15.6823 0H2.92183L0.294922 4.11039H18.3092L15.6823 0Z" fill="black"/>
<path d="M0 5.41455V6.86591C0 8.41791 1.26266 9.68056 2.81465 9.68056C3.68281 9.68056 4.46043 9.28552 4.97711 8.66563C5.49379 9.28548 6.27141 9.68056 7.13957 9.68056C8.00774 9.68056 8.78535 9.28552 9.30203 8.66563C9.81879 9.28548 10.5964 9.68056 11.4645 9.68056C12.3326 9.68056 13.1103 9.28552 13.627 8.66563C14.1437 9.28548 14.9213 9.68056 15.7894 9.68056C17.3414 9.68056 18.604 8.41791 18.604 6.86591V5.41455H0Z" fill="black"/>
<path d="M15.7889 10.9851C15.0147 10.9851 14.2689 10.7689 13.6265 10.3716C12.984 10.7689 12.2383 10.9851 11.464 10.9851C10.6897 10.9851 9.94403 10.7689 9.30156 10.3716C8.6591 10.7689 7.9134 10.9851 7.1391 10.9851C6.36481 10.9851 5.6191 10.7689 4.97664 10.3716C4.3341 10.7689 3.58848 10.9851 2.81418 10.9851C2.33121 10.9851 1.86754 10.9012 1.43652 10.7478V20H9.63832V12.6087H14.7653V20H17.2537V10.7158C16.7982 10.8896 16.3046 10.9851 15.7889 10.9851ZM7.40313 16.0869H3.92488V12.6086H7.40313V16.0869Z" fill="black"/>
</g>
</svg>
